<svg width="184" height="183" viewBox="0 0 184 183" fill="none" xmlns="http://www.w3.org/2000/svg">
<ellipse cx="13.2035" cy="176.442" rx="5.20352" ry="5.06855" fill="#FDCF24"/>
<path d="M27.1555 180.493C26.7099 180.493 26.2935 180.407 25.9063 180.235C25.5221 180.06 25.1856 179.818 24.8967 179.511C24.6109 179.201 24.3866 178.844 24.2237 178.442C24.0608 178.036 23.9794 177.603 23.9794 177.142C23.9794 176.665 24.0639 176.224 24.2329 175.819C24.405 175.413 24.6386 175.06 24.9336 174.758C25.2317 174.457 25.5713 174.224 25.9524 174.058C26.3365 173.889 26.7422 173.804 27.1693 173.804C27.6549 173.804 28.1174 173.918 28.5569 174.145C28.9963 174.373 29.3743 174.702 29.6909 175.132L28.9994 175.505C28.7628 175.204 28.4816 174.973 28.1558 174.814C27.8331 174.654 27.5012 174.574 27.1601 174.574C26.8344 174.574 26.5255 174.64 26.2335 174.772C25.9447 174.904 25.6881 175.089 25.4637 175.325C25.2424 175.562 25.0688 175.836 24.9428 176.146C24.8168 176.456 24.7538 176.793 24.7538 177.155C24.7538 177.509 24.8168 177.841 24.9428 178.151C25.0688 178.462 25.2409 178.735 25.4591 178.972C25.6804 179.205 25.937 179.388 26.2289 179.52C26.5209 179.652 26.8328 179.718 27.1647 179.718C27.429 179.718 27.6795 179.674 27.9161 179.585C28.1558 179.496 28.3755 179.37 28.5753 179.207C28.7781 179.044 28.9502 178.852 29.0916 178.631C29.236 178.409 29.3451 178.167 29.4189 177.902H27.8285V177.211H30.3224C30.3193 177.663 30.2333 178.087 30.0643 178.483C29.8983 178.879 29.6694 179.228 29.3774 179.529C29.0885 179.831 28.7535 180.067 28.3725 180.239C27.9945 180.408 27.5888 180.493 27.1555 180.493ZM33.1877 180.493C32.7636 180.493 32.3764 180.384 32.0261 180.166C31.6788 179.947 31.4007 179.655 31.1917 179.29C30.9858 178.921 30.8828 178.514 30.8828 178.068C30.8828 177.73 30.9428 177.415 31.0626 177.123C31.1825 176.828 31.3469 176.57 31.5559 176.349C31.7679 176.124 32.0138 175.949 32.2934 175.823C32.5731 175.697 32.8712 175.634 33.1877 175.634C33.6118 175.634 33.9975 175.743 34.3448 175.962C34.6951 176.18 34.9732 176.473 35.1791 176.842C35.3881 177.211 35.4926 177.619 35.4926 178.068C35.4926 178.403 35.4327 178.717 35.3128 179.009C35.193 179.301 35.027 179.559 34.815 179.783C34.606 180.004 34.3617 180.178 34.082 180.304C33.8054 180.43 33.5073 180.493 33.1877 180.493ZM33.1877 179.718C33.4766 179.718 33.7363 179.643 33.9668 179.493C34.2003 179.339 34.3832 179.138 34.5153 178.889C34.6506 178.637 34.7182 178.363 34.7182 178.068C34.7182 177.767 34.649 177.49 34.5107 177.238C34.3755 176.986 34.1927 176.785 33.9622 176.635C33.7317 176.484 33.4735 176.409 33.1877 176.409C32.8988 176.409 32.6392 176.485 32.4087 176.639C32.1782 176.79 31.9953 176.991 31.8601 177.243C31.7249 177.495 31.6573 177.77 31.6573 178.068C31.6573 178.375 31.7264 178.655 31.8647 178.907C32.003 179.156 32.1889 179.354 32.4225 179.502C32.6561 179.646 32.9111 179.718 33.1877 179.718ZM38.2567 180.493C37.8326 180.493 37.4453 180.384 37.095 180.166C36.7477 179.947 36.4696 179.655 36.2606 179.29C36.0547 178.921 35.9518 178.514 35.9518 178.068C35.9518 177.73 36.0117 177.415 36.1316 177.123C36.2514 176.828 36.4158 176.57 36.6248 176.349C36.8369 176.124 37.0827 175.949 37.3624 175.823C37.642 175.697 37.9401 175.634 38.2567 175.634C38.6808 175.634 39.0664 175.743 39.4137 175.962C39.764 176.18 40.0422 176.473 40.2481 176.842C40.457 177.211 40.5615 177.619 40.5615 178.068C40.5615 178.403 40.5016 178.717 40.3818 179.009C40.2619 179.301 40.0959 179.559 39.8839 179.783C39.6749 180.004 39.4306 180.178 39.1509 180.304C38.8744 180.43 38.5763 180.493 38.2567 180.493ZM38.2567 179.718C38.5455 179.718 38.8052 179.643 39.0357 179.493C39.2693 179.339 39.4521 179.138 39.5843 178.889C39.7195 178.637 39.7871 178.363 39.7871 178.068C39.7871 177.767 39.7179 177.49 39.5797 177.238C39.4444 176.986 39.2616 176.785 39.0311 176.635C38.8006 176.484 38.5425 176.409 38.2567 176.409C37.9678 176.409 37.7081 176.485 37.4776 176.639C37.2471 176.79 37.0643 176.991 36.929 177.243C36.7938 177.495 36.7262 177.77 36.7262 178.068C36.7262 178.375 36.7954 178.655 36.9337 178.907C37.0719 179.156 37.2579 179.354 37.4914 179.502C37.725 179.646 37.9801 179.718 38.2567 179.718ZM44.8975 175.763H45.672V180.521C45.672 180.825 45.6059 181.108 45.4737 181.369C45.3447 181.633 45.1695 181.862 44.9482 182.056C44.727 182.252 44.475 182.404 44.1922 182.512C43.9095 182.623 43.6145 182.678 43.3071 182.678C42.9875 182.678 42.6787 182.606 42.3806 182.461C42.0825 182.32 41.8213 182.129 41.5969 181.89C41.3757 181.653 41.2159 181.387 41.1175 181.092L41.8274 180.769C41.8858 180.982 41.9903 181.172 42.1409 181.341C42.2945 181.513 42.4728 181.648 42.6756 181.747C42.8815 181.848 43.092 181.899 43.3071 181.899C43.51 181.899 43.7051 181.864 43.8926 181.793C44.0831 181.722 44.2537 181.624 44.4043 181.498C44.5579 181.375 44.6778 181.229 44.7638 181.06C44.853 180.894 44.8975 180.714 44.8975 180.521V179.603C44.7408 179.868 44.5333 180.083 44.2752 180.249C44.0201 180.411 43.722 180.493 43.3809 180.493C43.0551 180.493 42.7494 180.43 42.4636 180.304C42.1778 180.178 41.9273 180.004 41.7122 179.783C41.4971 179.559 41.328 179.301 41.2051 179.009C41.0822 178.717 41.0207 178.403 41.0207 178.068C41.0207 177.733 41.0822 177.42 41.2051 177.128C41.328 176.833 41.4971 176.575 41.7122 176.353C41.9273 176.129 42.1778 175.954 42.4636 175.828C42.7494 175.702 43.0551 175.639 43.3809 175.639C43.722 175.639 44.0201 175.72 44.2752 175.883C44.5333 176.046 44.7408 176.261 44.8975 176.529V175.763ZM43.3855 179.742C43.6836 179.742 43.9418 179.665 44.16 179.511C44.3812 179.357 44.5518 179.153 44.6716 178.898C44.7915 178.643 44.8514 178.366 44.8514 178.068C44.8514 177.761 44.79 177.481 44.667 177.229C44.5472 176.974 44.3766 176.771 44.1553 176.621C43.9371 176.467 43.6805 176.39 43.3855 176.39C43.0966 176.39 42.8323 176.466 42.5926 176.616C42.3529 176.767 42.1624 176.97 42.021 177.225C41.8827 177.477 41.8136 177.758 41.8136 178.068C41.8136 178.379 41.8843 178.661 42.0256 178.916C42.1701 179.168 42.3606 179.37 42.5972 179.52C42.837 179.668 43.0997 179.742 43.3855 179.742ZM46.7804 180.373V173.458H47.5548V180.373H46.7804ZM50.6454 180.493C50.2213 180.493 49.8341 180.384 49.4837 180.166C49.1364 179.947 48.8583 179.655 48.6494 179.29C48.4434 178.921 48.3405 178.514 48.3405 178.068C48.3405 177.73 48.4004 177.415 48.5203 177.123C48.6401 176.828 48.8045 176.57 49.0135 176.349C49.2256 176.124 49.4714 175.949 49.7511 175.823C50.0307 175.697 50.3288 175.634 50.6454 175.634C50.9926 175.634 51.3107 175.705 51.5996 175.846C51.8915 175.985 52.1405 176.178 52.3464 176.427C52.5554 176.676 52.7105 176.965 52.812 177.294C52.9164 177.623 52.9549 177.974 52.9272 178.349H49.1656C49.2025 178.611 49.2886 178.844 49.4238 179.05C49.559 179.253 49.7311 179.414 49.9401 179.534C50.1521 179.654 50.3872 179.715 50.6454 179.718C50.922 179.718 51.1724 179.648 51.3968 179.506C51.6211 179.362 51.8024 179.165 51.9407 178.916L52.729 179.101C52.5446 179.509 52.2665 179.844 51.8946 180.106C51.5228 180.364 51.1064 180.493 50.6454 180.493ZM49.1426 177.741H52.1482C52.1236 177.483 52.0406 177.248 51.8992 177.036C51.7579 176.82 51.5781 176.648 51.3599 176.519C51.1417 176.39 50.9035 176.326 50.6454 176.326C50.3872 176.326 50.1506 176.389 49.9355 176.515C49.7204 176.641 49.5421 176.811 49.4007 177.026C49.2624 177.238 49.1764 177.477 49.1426 177.741Z" fill="#747681"/>
<ellipse cx="76.3478" cy="176.442" rx="5.20352" ry="5.06855" fill="#9FA324"/>
<path d="M89.538 180.373V173.919H91.6677C92.015 173.919 92.3269 174.004 92.6035 174.173C92.8832 174.342 93.1044 174.571 93.2673 174.86C93.4333 175.146 93.5163 175.465 93.5163 175.819C93.5163 176.178 93.4317 176.502 93.2627 176.791C93.0968 177.077 92.8724 177.304 92.5897 177.474C92.31 177.639 92.0027 177.722 91.6677 177.722H90.3125V180.373H89.538ZM90.3125 176.948H91.5986C91.8076 176.948 91.9981 176.897 92.1702 176.796C92.3454 176.691 92.4837 176.552 92.5851 176.376C92.6896 176.198 92.7418 175.998 92.7418 175.777C92.7418 175.553 92.6896 175.353 92.5851 175.178C92.4837 175 92.3454 174.86 92.1702 174.758C91.9981 174.654 91.8076 174.602 91.5986 174.602H90.3125V176.948ZM96.077 180.493C95.6529 180.493 95.2657 180.384 94.9154 180.166C94.5681 179.947 94.29 179.655 94.081 179.29C93.8751 178.921 93.7722 178.514 93.7722 178.068C93.7722 177.73 93.8321 177.415 93.9519 177.123C94.0718 176.828 94.2362 176.57 94.4452 176.349C94.6572 176.124 94.9031 175.949 95.1828 175.823C95.4624 175.697 95.7605 175.634 96.077 175.634C96.4243 175.634 96.7424 175.705 97.0313 175.846C97.3232 175.985 97.5721 176.178 97.778 176.427C97.987 176.676 98.1422 176.965 98.2436 177.294C98.3481 177.623 98.3865 177.974 98.3589 178.349H94.5973C94.6342 178.611 94.7202 178.844 94.8555 179.05C94.9907 179.253 95.1628 179.414 95.3718 179.534C95.5838 179.654 95.8189 179.715 96.077 179.718C96.3536 179.718 96.6041 179.648 96.8284 179.506C97.0528 179.362 97.2341 179.165 97.3724 178.916L98.1607 179.101C97.9763 179.509 97.6981 179.844 97.3263 180.106C96.9544 180.364 96.538 180.493 96.077 180.493ZM94.5743 177.741H97.5798C97.5552 177.483 97.4723 177.248 97.3309 177.036C97.1895 176.82 97.0098 176.648 96.7916 176.519C96.5734 176.39 96.3352 176.326 96.077 176.326C95.8189 176.326 95.5823 176.389 95.3671 176.515C95.152 176.641 94.9738 176.811 94.8324 177.026C94.6941 177.238 94.6081 177.477 94.5743 177.741ZM99.1357 180.373V175.763H99.9101V176.34C100.073 176.124 100.279 175.954 100.528 175.828C100.777 175.699 101.047 175.634 101.339 175.634C101.517 175.634 101.689 175.657 101.855 175.703L101.542 176.478C101.416 176.438 101.293 176.418 101.173 176.418C100.943 176.418 100.731 176.475 100.537 176.588C100.347 176.699 100.194 176.85 100.081 177.04C99.967 177.231 99.9101 177.443 99.9101 177.676V180.373H99.1357ZM103.828 180.461C103.579 180.451 103.336 180.405 103.1 180.322C102.866 180.236 102.66 180.121 102.482 179.977C102.307 179.829 102.179 179.66 102.099 179.47L102.763 179.184C102.809 179.288 102.892 179.387 103.012 179.479C103.132 179.571 103.27 179.645 103.427 179.7C103.584 179.755 103.742 179.783 103.902 179.783C104.071 179.783 104.229 179.757 104.376 179.705C104.524 179.652 104.644 179.576 104.736 179.474C104.831 179.37 104.879 179.245 104.879 179.101C104.879 178.947 104.827 178.827 104.722 178.741C104.621 178.652 104.492 178.583 104.335 178.534C104.181 178.482 104.025 178.432 103.865 178.386C103.548 178.306 103.266 178.211 103.017 178.1C102.768 177.987 102.571 177.844 102.427 177.672C102.285 177.497 102.215 177.274 102.215 177.003C102.215 176.718 102.293 176.47 102.45 176.261C102.609 176.052 102.818 175.891 103.077 175.777C103.335 175.663 103.611 175.607 103.906 175.607C104.278 175.607 104.618 175.686 104.925 175.846C105.232 176.006 105.461 176.223 105.612 176.496L104.99 176.86C104.937 176.75 104.857 176.653 104.75 176.57C104.642 176.484 104.519 176.416 104.381 176.367C104.243 176.318 104.101 176.292 103.957 176.289C103.779 176.283 103.611 176.306 103.455 176.358C103.301 176.41 103.176 176.49 103.081 176.598C102.989 176.702 102.943 176.833 102.943 176.989C102.943 177.143 102.992 177.26 103.09 177.34C103.192 177.42 103.322 177.484 103.482 177.533C103.645 177.58 103.822 177.633 104.012 177.695C104.292 177.784 104.553 177.887 104.796 178.004C105.039 178.12 105.234 178.266 105.381 178.442C105.532 178.617 105.606 178.833 105.603 179.092C105.603 179.374 105.518 179.622 105.349 179.834C105.18 180.043 104.96 180.202 104.69 180.313C104.423 180.424 104.135 180.473 103.828 180.461ZM108.376 180.493C107.952 180.493 107.564 180.384 107.214 180.166C106.867 179.947 106.589 179.655 106.38 179.29C106.174 178.921 106.071 178.514 106.071 178.068C106.071 177.73 106.131 177.415 106.251 177.123C106.37 176.828 106.535 176.57 106.744 176.349C106.956 176.124 107.202 175.949 107.481 175.823C107.761 175.697 108.059 175.634 108.376 175.634C108.8 175.634 109.186 175.743 109.533 175.962C109.883 176.18 110.161 176.473 110.367 176.842C110.576 177.211 110.681 177.619 110.681 178.068C110.681 178.403 110.621 178.717 110.501 179.009C110.381 179.301 110.215 179.559 110.003 179.783C109.794 180.004 109.55 180.178 109.27 180.304C108.993 180.43 108.695 180.493 108.376 180.493ZM108.376 179.718C108.665 179.718 108.924 179.643 109.155 179.493C109.388 179.339 109.571 179.138 109.703 178.889C109.839 178.637 109.906 178.363 109.906 178.068C109.906 177.767 109.837 177.49 109.699 177.238C109.564 176.986 109.381 176.785 109.15 176.635C108.92 176.484 108.662 176.409 108.376 176.409C108.087 176.409 107.827 176.485 107.597 176.639C107.366 176.79 107.183 176.991 107.048 177.243C106.913 177.495 106.845 177.77 106.845 178.068C106.845 178.375 106.914 178.655 107.053 178.907C107.191 179.156 107.377 179.354 107.611 179.502C107.844 179.646 108.099 179.718 108.376 179.718ZM115.518 177.506V180.373H114.744V177.676C114.744 177.443 114.687 177.231 114.573 177.04C114.46 176.85 114.308 176.699 114.117 176.588C113.927 176.475 113.714 176.418 113.481 176.418C113.25 176.418 113.038 176.475 112.845 176.588C112.654 176.699 112.502 176.85 112.388 177.04C112.275 177.231 112.218 177.443 112.218 177.676V180.373H111.443V175.763H112.218V176.34C112.381 176.124 112.587 175.954 112.836 175.828C113.084 175.699 113.355 175.634 113.647 175.634C113.991 175.634 114.305 175.719 114.587 175.888C114.873 176.054 115.099 176.278 115.265 176.561C115.434 176.844 115.518 177.159 115.518 177.506ZM120.056 175.763H120.831V180.373H120.056L120.024 179.594C119.88 179.861 119.68 180.078 119.425 180.244C119.173 180.41 118.872 180.493 118.521 180.493C118.183 180.493 117.867 180.43 117.572 180.304C117.277 180.175 117.016 179.998 116.788 179.774C116.564 179.546 116.389 179.285 116.263 178.99C116.137 178.695 116.074 178.377 116.074 178.036C116.074 177.707 116.135 177.397 116.258 177.105C116.381 176.813 116.552 176.558 116.77 176.34C116.991 176.118 117.246 175.946 117.535 175.823C117.824 175.697 118.134 175.634 118.466 175.634C118.829 175.634 119.147 175.72 119.42 175.892C119.694 176.061 119.915 176.281 120.084 176.552L120.056 175.763ZM118.508 179.742C118.812 179.742 119.075 179.668 119.296 179.52C119.52 179.37 119.692 179.167 119.812 178.912C119.935 178.657 119.997 178.375 119.997 178.068C119.997 177.755 119.935 177.472 119.812 177.22C119.689 176.965 119.516 176.764 119.291 176.616C119.07 176.466 118.809 176.39 118.508 176.39C118.203 176.39 117.927 176.466 117.678 176.616C117.429 176.767 117.231 176.97 117.083 177.225C116.939 177.477 116.867 177.758 116.867 178.068C116.867 178.379 116.942 178.661 117.092 178.916C117.243 179.168 117.443 179.37 117.692 179.52C117.941 179.668 118.213 179.742 118.508 179.742ZM121.806 180.373V173.458H122.581V180.373H121.806Z" fill="#747681"/>
<ellipse cx="146.089" cy="176.442" rx="5.20352" ry="5.06855" fill="white"/>
<path d="M159.078 180.493C158.654 180.493 158.266 180.384 157.916 180.166C157.569 179.947 157.291 179.655 157.082 179.29C156.876 178.921 156.773 178.514 156.773 178.068C156.773 177.73 156.833 177.415 156.953 177.123C157.073 176.828 157.237 176.57 157.446 176.349C157.658 176.124 157.904 175.949 158.184 175.823C158.463 175.697 158.761 175.634 159.078 175.634C159.502 175.634 159.888 175.743 160.235 175.962C160.585 176.18 160.863 176.473 161.069 176.842C161.278 177.211 161.383 177.619 161.383 178.068C161.383 178.403 161.323 178.717 161.203 179.009C161.083 179.301 160.917 179.559 160.705 179.783C160.496 180.004 160.252 180.178 159.972 180.304C159.696 180.43 159.397 180.493 159.078 180.493ZM159.078 179.718C159.367 179.718 159.626 179.643 159.857 179.493C160.09 179.339 160.273 179.138 160.405 178.889C160.541 178.637 160.608 178.363 160.608 178.068C160.608 177.767 160.539 177.49 160.401 177.238C160.266 176.986 160.083 176.785 159.852 176.635C159.622 176.484 159.364 176.409 159.078 176.409C158.789 176.409 158.529 176.485 158.299 176.639C158.068 176.79 157.885 176.991 157.75 177.243C157.615 177.495 157.547 177.77 157.547 178.068C157.547 178.375 157.617 178.655 157.755 178.907C157.893 179.156 158.079 179.354 158.313 179.502C158.546 179.646 158.801 179.718 159.078 179.718ZM164.479 176.538H163.433L163.428 180.373H162.654L162.658 176.538H161.866V175.763H162.658L162.654 174.316H163.428L163.433 175.763H164.479V176.538ZM169.381 177.506V180.373H168.606V177.676C168.606 177.443 168.549 177.231 168.436 177.04C168.322 176.85 168.17 176.699 167.979 176.588C167.789 176.475 167.577 176.418 167.343 176.418C167.113 176.418 166.901 176.475 166.707 176.588C166.516 176.699 166.364 176.85 166.251 177.04C166.137 177.231 166.08 177.443 166.08 177.676V180.373H165.306V173.458H166.08V176.34C166.243 176.124 166.449 175.954 166.698 175.828C166.947 175.699 167.217 175.634 167.509 175.634C167.853 175.634 168.167 175.719 168.45 175.888C168.735 176.054 168.961 176.278 169.127 176.561C169.296 176.844 169.381 177.159 169.381 177.506ZM172.241 180.493C171.817 180.493 171.429 180.384 171.079 180.166C170.732 179.947 170.454 179.655 170.245 179.29C170.039 178.921 169.936 178.514 169.936 178.068C169.936 177.73 169.996 177.415 170.116 177.123C170.236 176.828 170.4 176.57 170.609 176.349C170.821 176.124 171.067 175.949 171.347 175.823C171.626 175.697 171.924 175.634 172.241 175.634C172.588 175.634 172.906 175.705 173.195 175.846C173.487 175.985 173.736 176.178 173.942 176.427C174.151 176.676 174.306 176.965 174.407 177.294C174.512 177.623 174.55 177.974 174.523 178.349H170.761C170.798 178.611 170.884 178.844 171.019 179.05C171.154 179.253 171.327 179.414 171.536 179.534C171.748 179.654 171.983 179.715 172.241 179.718C172.517 179.718 172.768 179.648 172.992 179.506C173.217 179.362 173.398 179.165 173.536 178.916L174.324 179.101C174.14 179.509 173.862 179.844 173.49 180.106C173.118 180.364 172.702 180.493 172.241 180.493ZM170.738 177.741H173.744C173.719 177.483 173.636 177.248 173.495 177.036C173.353 176.82 173.174 176.648 172.955 176.519C172.737 176.39 172.499 176.326 172.241 176.326C171.983 176.326 171.746 176.389 171.531 176.515C171.316 176.641 171.138 176.811 170.996 177.026C170.858 177.238 170.772 177.477 170.738 177.741ZM175.299 180.373V175.763H176.074V176.34C176.237 176.124 176.443 175.954 176.692 175.828C176.941 175.699 177.211 175.634 177.503 175.634C177.681 175.634 177.853 175.657 178.019 175.703L177.706 176.478C177.58 176.438 177.457 176.418 177.337 176.418C177.106 176.418 176.894 176.475 176.701 176.588C176.51 176.699 176.358 176.85 176.244 177.04C176.131 177.231 176.074 177.443 176.074 177.676V180.373H175.299ZM179.992 180.461C179.743 180.451 179.5 180.405 179.263 180.322C179.03 180.236 178.824 180.121 178.646 179.977C178.47 179.829 178.343 179.66 178.263 179.47L178.927 179.184C178.973 179.288 179.056 179.387 179.176 179.479C179.296 179.571 179.434 179.645 179.591 179.7C179.747 179.755 179.906 179.783 180.065 179.783C180.234 179.783 180.393 179.757 180.54 179.705C180.688 179.652 180.808 179.576 180.9 179.474C180.995 179.37 181.043 179.245 181.043 179.101C181.043 178.947 180.99 178.827 180.886 178.741C180.785 178.652 180.655 178.583 180.499 178.534C180.345 178.482 180.188 178.432 180.029 178.386C179.712 178.306 179.429 178.211 179.18 178.1C178.931 177.987 178.735 177.844 178.59 177.672C178.449 177.497 178.378 177.274 178.378 177.003C178.378 176.718 178.457 176.47 178.613 176.261C178.773 176.052 178.982 175.891 179.24 175.777C179.498 175.663 179.775 175.607 180.07 175.607C180.442 175.607 180.781 175.686 181.089 175.846C181.396 176.006 181.625 176.223 181.776 176.496L181.153 176.86C181.101 176.75 181.021 176.653 180.914 176.57C180.806 176.484 180.683 176.416 180.545 176.367C180.407 176.318 180.265 176.292 180.121 176.289C179.943 176.283 179.775 176.306 179.618 176.358C179.465 176.41 179.34 176.49 179.245 176.598C179.153 176.702 179.107 176.833 179.107 176.989C179.107 177.143 179.156 177.26 179.254 177.34C179.356 177.42 179.486 177.484 179.646 177.533C179.809 177.58 179.986 177.633 180.176 177.695C180.456 177.784 180.717 177.887 180.96 178.004C181.203 178.12 181.398 178.266 181.545 178.442C181.696 178.617 181.77 178.833 181.766 179.092C181.766 179.374 181.682 179.622 181.513 179.834C181.344 180.043 181.124 180.202 180.854 180.313C180.586 180.424 180.299 180.473 179.992 180.461Z" fill="#747681"/>
<path fill-rule="evenodd" clip-rule="evenodd" d="M98.6455 139.025L98.6455 153.574C107.581 153.574 116.429 151.86 124.685 148.529C132.94 145.198 140.442 140.316 146.76 134.162C153.079 128.007 158.091 120.7 161.51 112.659C164.93 104.618 166.69 95.999 166.69 87.295H151.753C151.753 115.865 127.976 139.025 98.6455 139.025Z" fill="#F5F5F5"/>
<path fill-rule="evenodd" clip-rule="evenodd" d="M173.011 57.291C177.056 66.8034 179.138 76.9987 179.138 87.2948H151.753C151.753 87.2948 151.753 87.2948 151.753 87.2947C151.753 58.7251 127.976 35.5648 98.6462 35.5645L98.6462 8.89112C109.216 8.89112 119.683 10.9191 129.449 14.8592C139.215 18.7994 148.088 24.5746 155.562 31.855C163.037 39.1355 168.965 47.7787 173.011 57.291Z" fill="#9FA324"/>
<path fill-rule="evenodd" clip-rule="evenodd" d="M35.276 25.5681C18.4691 41.939 9.0271 64.1428 9.0271 87.2949H45.5388C45.5388 87.2948 45.5388 87.2948 45.5388 87.2947C45.5388 58.7249 69.3159 35.5645 98.6464 35.5645V0C74.8779 0 52.0829 9.19711 35.276 25.5681Z" fill="#FDCF24"/>
<mask id="mask0_2_1838" style="mask-type:alpha" maskUnits="userSpaceOnUse" x="9" y="0" width="171" height="154">
<path fill-rule="evenodd" clip-rule="evenodd" d="M98.6455 139.025L98.6455 153.574C107.581 153.574 116.429 151.86 124.685 148.529C132.94 145.198 140.442 140.316 146.76 134.162C153.079 128.007 158.091 120.7 161.51 112.659C164.93 104.618 166.69 95.999 166.69 87.295H151.753C151.753 115.865 127.976 139.025 98.6455 139.025Z" fill="#F6F6F6"/>
<path fill-rule="evenodd" clip-rule="evenodd" d="M173.011 57.291C177.056 66.8034 179.138 76.9987 179.138 87.2948H151.753C151.753 87.2948 151.753 87.2948 151.753 87.2947C151.753 58.7251 127.977 35.5648 98.6462 35.5644L98.6462 8.89111C109.217 8.89111 119.683 10.9191 129.449 14.8592C139.215 18.7994 148.088 24.5746 155.562 31.855C163.037 39.1355 168.966 47.7786 173.011 57.291Z" fill="#52D6B7"/>
<path fill-rule="evenodd" clip-rule="evenodd" d="M35.276 25.5681C18.4691 41.939 9.0271 64.1428 9.0271 87.2949H45.5388C45.5388 87.2948 45.5388 87.2948 45.5388 87.2947C45.5388 58.7249 69.3159 35.5645 98.6464 35.5645V0C74.8779 0 52.0829 9.19711 35.276 25.5681Z" fill="#84E8F4"/>
</mask>
<g mask="url(#mask0_2_1838)">
<ellipse opacity="0.35" cx="160.882" cy="28.2899" rx="29.0433" ry="28.29" fill="white"/>
<ellipse opacity="0.35" cx="185.777" cy="89.7197" rx="29.0433" ry="28.29" fill="white"/>
<ellipse opacity="0.35" cx="41.3897" cy="99.419" rx="29.0433" ry="28.29" fill="white"/>
<ellipse opacity="0.35" cx="59.6453" cy="-3.8147e-05" rx="29.0433" ry="28.29" fill="white"/>
</g>
<g filter="url(#filter0_d_2_1838)">
<ellipse cx="98.6465" cy="87.2947" rx="53.1077" ry="51.7303" fill="white"/>
</g>
<path d="M98.6473 75.9785C96.3497 75.9785 94.1036 76.6422 92.1931 77.8856C90.2827 79.129 88.7936 80.8963 87.9143 82.9641C87.0351 85.0318 86.805 87.3071 87.2533 89.5022C87.7015 91.6972 88.808 93.7136 90.4327 95.2961C92.0574 96.8787 94.1274 97.9565 96.3809 98.3931C98.6345 98.8297 100.97 98.6056 103.093 97.7491C105.216 96.8927 107.03 95.4423 108.307 93.5814C109.583 91.7204 110.265 89.5326 110.265 87.2945H98.6473V75.9785Z" fill="#9FA324"/>
<g filter="url(#filter1_d_2_1838)">
<ellipse cx="152.584" cy="138.216" rx="16.5962" ry="16.1657" fill="white"/>
<path d="M144.675 142.559V136.219H143.867L144.109 135.354H145.54V142.559H144.675ZM149.093 142.692C148.664 142.692 148.273 142.595 147.92 142.399C147.57 142.204 147.29 141.943 147.081 141.617C146.875 141.288 146.772 140.924 146.772 140.526C146.772 140.155 146.87 139.816 147.065 139.507C147.261 139.195 147.516 138.948 147.832 138.766C147.575 138.601 147.362 138.384 147.194 138.113C147.029 137.838 146.947 137.541 146.947 137.222C146.947 136.852 147.043 136.516 147.235 136.214C147.431 135.912 147.69 135.672 148.012 135.493C148.338 135.312 148.698 135.221 149.093 135.221C149.487 135.221 149.846 135.312 150.168 135.493C150.494 135.672 150.753 135.912 150.945 136.214C151.141 136.516 151.239 136.852 151.239 137.222C151.239 137.541 151.156 137.838 150.992 138.113C150.827 138.384 150.613 138.601 150.348 138.766C150.674 138.948 150.933 139.195 151.125 139.507C151.321 139.816 151.419 140.155 151.419 140.526C151.419 140.92 151.314 141.282 151.105 141.612C150.896 141.941 150.614 142.204 150.261 142.399C149.911 142.595 149.522 142.692 149.093 142.692ZM149.093 141.828C149.354 141.828 149.589 141.77 149.798 141.653C150.011 141.536 150.18 141.38 150.307 141.185C150.434 140.986 150.498 140.766 150.498 140.526C150.498 140.282 150.434 140.063 150.307 139.867C150.18 139.672 150.011 139.516 149.798 139.399C149.589 139.282 149.354 139.224 149.093 139.224C148.836 139.224 148.601 139.282 148.388 139.399C148.175 139.516 148.005 139.672 147.878 139.867C147.751 140.063 147.688 140.282 147.688 140.526C147.688 140.766 147.751 140.986 147.878 141.185C148.005 141.38 148.175 141.536 148.388 141.653C148.601 141.77 148.836 141.828 149.093 141.828ZM149.093 138.36C149.319 138.36 149.525 138.308 149.71 138.205C149.896 138.102 150.043 137.965 150.153 137.794C150.266 137.622 150.323 137.432 150.323 137.222C150.323 137.01 150.266 136.819 150.153 136.651C150.043 136.48 149.896 136.342 149.71 136.239C149.525 136.137 149.319 136.085 149.093 136.085C148.866 136.085 148.661 136.137 148.475 136.239C148.29 136.342 148.141 136.48 148.028 136.651C147.918 136.819 147.863 137.01 147.863 137.222C147.863 137.432 147.918 137.622 148.028 137.794C148.141 137.965 148.29 138.102 148.475 138.205C148.661 138.308 148.866 138.36 149.093 138.36ZM152.703 142.559L156.86 135.354H157.859L153.701 142.559H152.703ZM153.557 138.252C153.313 138.252 153.092 138.193 152.893 138.077C152.698 137.96 152.54 137.802 152.42 137.603C152.3 137.404 152.24 137.183 152.24 136.939C152.24 136.689 152.3 136.466 152.42 136.27C152.54 136.071 152.699 135.914 152.898 135.797C153.097 135.68 153.317 135.622 153.557 135.622C153.797 135.622 154.017 135.682 154.216 135.802C154.415 135.919 154.572 136.077 154.689 136.276C154.809 136.471 154.869 136.692 154.869 136.939C154.869 137.186 154.809 137.409 154.689 137.608C154.569 137.804 154.409 137.96 154.21 138.077C154.011 138.193 153.794 138.252 153.557 138.252ZM153.557 137.619C153.746 137.619 153.905 137.553 154.035 137.423C154.169 137.289 154.236 137.128 154.236 136.939C154.236 136.747 154.169 136.586 154.035 136.456C153.905 136.322 153.746 136.255 153.557 136.255C153.368 136.255 153.207 136.322 153.073 136.456C152.939 136.586 152.872 136.747 152.872 136.939C152.872 137.128 152.939 137.289 153.073 137.423C153.207 137.553 153.368 137.619 153.557 137.619ZM157.01 142.296C156.77 142.296 156.548 142.236 156.346 142.116C156.147 141.993 155.987 141.831 155.867 141.632C155.751 141.43 155.692 141.212 155.692 140.979C155.692 140.732 155.752 140.509 155.872 140.31C155.996 140.111 156.157 139.953 156.356 139.836C156.555 139.72 156.773 139.661 157.01 139.661C157.257 139.661 157.48 139.723 157.679 139.847C157.878 139.967 158.035 140.126 158.152 140.325C158.269 140.524 158.327 140.742 158.327 140.979C158.327 141.222 158.267 141.444 158.147 141.643C158.03 141.842 157.873 142.001 157.674 142.121C157.475 142.238 157.253 142.296 157.01 142.296ZM157.01 141.663C157.198 141.663 157.36 141.596 157.493 141.463C157.627 141.329 157.694 141.168 157.694 140.979C157.694 140.79 157.627 140.629 157.493 140.495C157.36 140.361 157.198 140.294 157.01 140.294C156.821 140.294 156.66 140.361 156.526 140.495C156.392 140.629 156.325 140.79 156.325 140.979C156.325 141.168 156.392 141.329 156.526 141.463C156.66 141.596 156.821 141.663 157.01 141.663Z" fill="#747681"/>
</g>
<g filter="url(#filter2_d_2_1838)">
<ellipse cx="158.393" cy="29.0983" rx="16.5962" ry="16.1657" fill="white"/>
<path d="M149.676 33.4404V32.6737C149.94 32.437 150.237 32.1728 150.566 31.8812C150.896 31.5862 151.223 31.2792 151.549 30.9601C151.878 30.6377 152.18 30.3186 152.455 30.003C152.729 29.6874 152.951 29.3889 153.119 29.1076C153.287 28.8229 153.371 28.5742 153.371 28.3615C153.371 28.1076 153.309 27.8761 153.186 27.6668C153.062 27.4541 152.896 27.2843 152.686 27.1574C152.481 27.0304 152.251 26.967 151.997 26.967C151.743 26.967 151.51 27.0304 151.297 27.1574C151.088 27.2843 150.92 27.4541 150.793 27.6668C150.669 27.8761 150.607 28.1076 150.607 28.3615H149.743C149.743 27.9395 149.846 27.5587 150.052 27.2191C150.258 26.876 150.53 26.605 150.87 26.4061C151.21 26.2037 151.585 26.1025 151.997 26.1025C152.409 26.1025 152.782 26.2037 153.119 26.4061C153.458 26.6085 153.729 26.8812 153.932 27.2242C154.134 27.5639 154.235 27.943 154.235 28.3615C154.235 28.6016 154.177 28.8606 154.06 29.1385C153.944 29.4129 153.784 29.696 153.582 29.9876C153.379 30.2792 153.15 30.5742 152.892 30.8727C152.635 31.1677 152.364 31.4593 152.079 31.7474C151.794 32.0356 151.511 32.3118 151.23 32.5759H154.328V33.4404H149.676ZM157.675 33.5742C157.247 33.5742 156.855 33.4765 156.502 33.2809C156.152 33.0854 155.873 32.8246 155.663 32.4987C155.458 32.1694 155.355 31.8058 155.355 31.4078C155.355 31.0373 155.452 30.6977 155.648 30.3889C155.843 30.0768 156.099 29.8298 156.415 29.6479C156.157 29.4833 155.945 29.2654 155.777 28.9944C155.612 28.72 155.53 28.4232 155.53 28.1042C155.53 27.7337 155.626 27.3975 155.818 27.0956C156.013 26.7937 156.272 26.5536 156.595 26.3752C156.921 26.1934 157.281 26.1025 157.675 26.1025C158.07 26.1025 158.428 26.1934 158.751 26.3752C159.077 26.5536 159.336 26.7937 159.528 27.0956C159.723 27.3975 159.821 27.7337 159.821 28.1042C159.821 28.4232 159.739 28.72 159.574 28.9944C159.41 29.2654 159.195 29.4833 158.931 29.6479C159.257 29.8298 159.516 30.0768 159.708 30.3889C159.904 30.6977 160.001 31.0373 160.001 31.4078C160.001 31.8023 159.897 32.1643 159.687 32.4936C159.478 32.8229 159.197 33.0854 158.843 33.2809C158.494 33.4765 158.104 33.5742 157.675 33.5742ZM157.675 32.7097C157.936 32.7097 158.171 32.6514 158.38 32.5348C158.593 32.4181 158.763 32.262 158.89 32.0665C159.017 31.8675 159.08 31.648 159.08 31.4078C159.08 31.1643 159.017 30.9447 158.89 30.7492C158.763 30.5536 158.593 30.3975 158.38 30.2809C158.171 30.1642 157.936 30.1059 157.675 30.1059C157.418 30.1059 157.183 30.1642 156.97 30.2809C156.758 30.3975 156.588 30.5536 156.461 30.7492C156.334 30.9447 156.271 31.1643 156.271 31.4078C156.271 31.648 156.334 31.8675 156.461 32.0665C156.588 32.262 156.758 32.4181 156.97 32.5348C157.183 32.6514 157.418 32.7097 157.675 32.7097ZM157.675 29.2414C157.902 29.2414 158.108 29.19 158.293 29.087C158.478 28.9841 158.626 28.8469 158.735 28.6754C158.849 28.5038 158.905 28.3135 158.905 28.1042C158.905 27.8915 158.849 27.7011 158.735 27.533C158.626 27.3615 158.478 27.2242 158.293 27.1213C158.108 27.0184 157.902 26.967 157.675 26.967C157.449 26.967 157.243 27.0184 157.058 27.1213C156.873 27.2242 156.723 27.3615 156.61 27.533C156.5 27.7011 156.446 27.8915 156.446 28.1042C156.446 28.3135 156.5 28.5038 156.61 28.6754C156.723 28.8469 156.873 28.9841 157.058 29.087C157.243 29.19 157.449 29.2414 157.675 29.2414ZM161.285 33.4404L165.443 26.2362H166.441L162.283 33.4404H161.285ZM162.139 29.1334C161.896 29.1334 161.675 29.075 161.476 28.9584C161.28 28.8418 161.122 28.684 161.002 28.485C160.882 28.286 160.822 28.0647 160.822 27.8212C160.822 27.5707 160.882 27.3477 161.002 27.1522C161.122 26.9532 161.282 26.7954 161.481 26.6788C161.68 26.5621 161.899 26.5038 162.139 26.5038C162.38 26.5038 162.599 26.5639 162.798 26.6839C162.997 26.8006 163.155 26.9584 163.271 27.1574C163.392 27.3529 163.452 27.5742 163.452 27.8212C163.452 28.0682 163.392 28.2912 163.271 28.4901C163.151 28.6857 162.992 28.8418 162.793 28.9584C162.594 29.075 162.376 29.1334 162.139 29.1334ZM162.139 28.5004C162.328 28.5004 162.488 28.4352 162.618 28.3049C162.752 28.1711 162.819 28.0098 162.819 27.8212C162.819 27.6291 162.752 27.4678 162.618 27.3375C162.488 27.2037 162.328 27.1368 162.139 27.1368C161.951 27.1368 161.789 27.2037 161.656 27.3375C161.522 27.4678 161.455 27.6291 161.455 27.8212C161.455 28.0098 161.522 28.1711 161.656 28.3049C161.789 28.4352 161.951 28.5004 162.139 28.5004ZM165.592 33.178C165.352 33.178 165.131 33.118 164.928 32.9979C164.729 32.8744 164.57 32.7132 164.45 32.5142C164.333 32.3118 164.275 32.0939 164.275 31.8607C164.275 31.6137 164.335 31.3907 164.455 31.1917C164.579 30.9927 164.74 30.8349 164.939 30.7183C165.138 30.6016 165.356 30.5433 165.592 30.5433C165.839 30.5433 166.062 30.6051 166.261 30.7286C166.46 30.8486 166.618 31.0082 166.735 31.2071C166.851 31.4061 166.91 31.6239 166.91 31.8607C166.91 32.1042 166.85 32.3255 166.729 32.5245C166.613 32.7234 166.455 32.883 166.256 33.003C166.057 33.1197 165.836 33.178 165.592 33.178ZM165.592 32.5451C165.781 32.5451 165.942 32.4782 166.076 32.3444C166.21 32.2106 166.277 32.0493 166.277 31.8607C166.277 31.672 166.21 31.5107 166.076 31.3769C165.942 31.2432 165.781 31.1763 165.592 31.1763C165.404 31.1763 165.242 31.2432 165.109 31.3769C164.975 31.5107 164.908 31.672 164.908 31.8607C164.908 32.0493 164.975 32.2106 165.109 32.3444C165.242 32.4782 165.404 32.5451 165.592 32.5451Z" fill="#747681"/>
</g>
<g filter="url(#filter3_d_2_1838)">
<ellipse cx="25.6233" cy="39.606" rx="16.5962" ry="16.1657" fill="white"/>
<path d="M20.0043 43.9481V42.003H16.9065V41.1282L19.7882 36.7439H20.8688V41.1385H21.5841V42.003H20.8688V43.9481H20.0043ZM17.9203 41.1282L20.0043 41.1385L19.9889 37.9584L17.9203 41.1282ZM22.8879 43.9481L26.5415 37.6084H22.4094V36.7439H27.5398V37.6084L23.8759 43.9481H22.8879ZM28.6162 43.9481L32.774 36.7439H33.7723L29.6144 43.9481H28.6162ZM29.4704 39.641C29.2268 39.641 29.0055 39.5827 28.8066 39.4661C28.611 39.3494 28.4532 39.1916 28.3331 38.9927C28.2131 38.7937 28.153 38.5724 28.153 38.3289C28.153 38.0784 28.2131 37.8554 28.3331 37.6599C28.4532 37.4609 28.6127 37.3031 28.8117 37.1865C29.0107 37.0698 29.2302 37.0115 29.4704 37.0115C29.7105 37.0115 29.9301 37.0716 30.129 37.1916C30.328 37.3083 30.4858 37.4661 30.6025 37.665C30.7225 37.8606 30.7826 38.0819 30.7826 38.3289C30.7826 38.5759 30.7225 38.7988 30.6025 38.9978C30.4824 39.1934 30.3229 39.3494 30.1239 39.4661C29.9249 39.5827 29.7071 39.641 29.4704 39.641ZM29.4704 39.0081C29.659 39.0081 29.8186 38.9429 29.9489 38.8126C30.0827 38.6788 30.1496 38.5175 30.1496 38.3289C30.1496 38.1367 30.0827 37.9755 29.9489 37.8451C29.8186 37.7114 29.659 37.6445 29.4704 37.6445C29.2817 37.6445 29.1204 37.7114 28.9867 37.8451C28.8529 37.9755 28.786 38.1367 28.786 38.3289C28.786 38.5175 28.8529 38.6788 28.9867 38.8126C29.1204 38.9429 29.2817 39.0081 29.4704 39.0081ZM32.9232 43.6857C32.6831 43.6857 32.4618 43.6256 32.2594 43.5056C32.0604 43.3821 31.9009 43.2208 31.7808 43.0219C31.6642 42.8195 31.6059 42.6016 31.6059 42.3683C31.6059 42.1213 31.6659 41.8984 31.786 41.6994C31.9095 41.5004 32.0707 41.3426 32.2697 41.226C32.4687 41.1093 32.6865 41.051 32.9232 41.051C33.1702 41.051 33.3932 41.1128 33.5922 41.2363C33.7912 41.3563 33.949 41.5159 34.0656 41.7148C34.1822 41.9138 34.2406 42.1316 34.2406 42.3683C34.2406 42.6119 34.1805 42.8332 34.0605 43.0322C33.9438 43.2311 33.786 43.3907 33.587 43.5107C33.3881 43.6274 33.1668 43.6857 32.9232 43.6857ZM32.9232 43.0527C33.1119 43.0527 33.2731 42.9858 33.4069 42.8521C33.5407 42.7183 33.6076 42.557 33.6076 42.3683C33.6076 42.1797 33.5407 42.0184 33.4069 41.8846C33.2731 41.7508 33.1119 41.6839 32.9232 41.6839C32.7345 41.6839 32.5733 41.7508 32.4395 41.8846C32.3057 42.0184 32.2388 42.1797 32.2388 42.3683C32.2388 42.557 32.3057 42.7183 32.4395 42.8521C32.5733 42.9858 32.7345 43.0527 32.9232 43.0527Z" fill="#747681"/>
</g>
<defs>
<filter id="filter0_d_2_1838" x="31.8166" y="21.8422" width="133.66" height="130.905" filterUnits="userSpaceOnUse" color-interpolation-filters="sRGB">
<feFlood flood-opacity="0" result="BackgroundImageFix"/>
<feColorMatrix in="SourceAlpha" type="matrix" values="0 0 0 0 0 0 0 0 0 0 0 0 0 0 0 0 0 0 127 0" result="hardAlpha"/>
<feOffset/>
<feGaussianBlur stdDeviation="6.86113"/>
<feColorMatrix type="matrix" values="0 0 0 0 0 0 0 0 0 0 0 0 0 0 0 0 0 0 0.1 0"/>
<feBlend mode="normal" in2="BackgroundImageFix" result="effect1_dropShadow_2_1838"/>
<feBlend mode="normal" in="SourceGraphic" in2="effect1_dropShadow_2_1838" result="shape"/>
</filter>
<filter id="filter1_d_2_1838" x="127.412" y="116.905" width="50.3452" height="49.4842" filterUnits="userSpaceOnUse" color-interpolation-filters="sRGB">
<feFlood flood-opacity="0" result="BackgroundImageFix"/>
<feColorMatrix in="SourceAlpha" type="matrix" values="0 0 0 0 0 0 0 0 0 0 0 0 0 0 0 0 0 0 127 0" result="hardAlpha"/>
<feOffset dy="3.43056"/>
<feGaussianBlur stdDeviation="4.2882"/>
<feColorMatrix type="matrix" values="0 0 0 0 0 0 0 0 0 0 0 0 0 0 0 0 0 0 0.12 0"/>
<feBlend mode="normal" in2="BackgroundImageFix" result="effect1_dropShadow_2_1838"/>
<feBlend mode="normal" in="SourceGraphic" in2="effect1_dropShadow_2_1838" result="shape"/>
</filter>
<filter id="filter2_d_2_1838" x="133.22" y="7.78677" width="50.3452" height="49.4842" filterUnits="userSpaceOnUse" color-interpolation-filters="sRGB">
<feFlood flood-opacity="0" result="BackgroundImageFix"/>
<feColorMatrix in="SourceAlpha" type="matrix" values="0 0 0 0 0 0 0 0 0 0 0 0 0 0 0 0 0 0 127 0" result="hardAlpha"/>
<feOffset dy="3.43056"/>
<feGaussianBlur stdDeviation="4.2882"/>
<feColorMatrix type="matrix" values="0 0 0 0 0 0 0 0 0 0 0 0 0 0 0 0 0 0 0.12 0"/>
<feBlend mode="normal" in2="BackgroundImageFix" result="effect1_dropShadow_2_1838"/>
<feBlend mode="normal" in="SourceGraphic" in2="effect1_dropShadow_2_1838" result="shape"/>
</filter>
<filter id="filter3_d_2_1838" x="0.45069" y="18.2945" width="50.3452" height="49.4842" filterUnits="userSpaceOnUse" color-interpolation-filters="sRGB">
<feFlood flood-opacity="0" result="BackgroundImageFix"/>
<feColorMatrix in="SourceAlpha" type="matrix" values="0 0 0 0 0 0 0 0 0 0 0 0 0 0 0 0 0 0 127 0" result="hardAlpha"/>
<feOffset dy="3.43056"/>
<feGaussianBlur stdDeviation="4.2882"/>
<feColorMatrix type="matrix" values="0 0 0 0 0 0 0 0 0 0 0 0 0 0 0 0 0 0 0.12 0"/>
<feBlend mode="normal" in2="BackgroundImageFix" result="effect1_dropShadow_2_1838"/>
<feBlend mode="normal" in="SourceGraphic" in2="effect1_dropShadow_2_1838" result="shape"/>
</filter>
</defs>
</svg>
