<svg width="20" height="21" viewBox="0 0 20 21" fill="none" xmlns="http://www.w3.org/2000/svg">
<path d="M15.4316 3.73987L14.4444 3.73987L10.5555 3.73987L9.56835 3.73987C8.28203 3.73987 7.48058 5.13522 8.12871 6.24632L11.0603 11.2719C11.7035 12.3744 13.2965 12.3744 13.9396 11.2719L16.8712 6.24632C17.5193 5.13523 16.7179 3.73987 15.4316 3.73987Z" fill="#9FA324"/>
<path opacity="0.4" d="M4.16927 16.2655L5.15643 16.2655L9.04532 16.2655L10.0325 16.2655C11.3188 16.2655 12.1203 14.8701 11.4721 13.7591L8.54051 8.73344C7.89738 7.63093 6.30438 7.63093 5.66125 8.73344L2.72964 13.7591C2.0815 14.8701 2.88295 16.2655 4.16927 16.2655Z" fill="#9FA324"/>
</svg>
