<svg width="654" height="232" viewBox="0 0 654 232" fill="none" xmlns="http://www.w3.org/2000/svg">
<path d="M3.745 47.6058C3.12433 47.6058 2.55733 47.4518 2.044 47.1438C1.53067 46.8358 1.12 46.4252 0.812 45.9118C0.504 45.3938 0.35 44.8222 0.35 44.1968C0.35 43.8468 0.389667 43.5412 0.469 43.2798C0.553 43.0185 0.676667 42.7362 0.84 42.4328L3.612 37.6238H4.977L2.996 41.0608C3.39733 40.9348 3.79633 40.8905 4.193 40.9278C4.58967 40.9652 4.96533 41.0725 5.32 41.2498C5.67933 41.4272 5.99667 41.6605 6.272 41.9498C6.54733 42.2392 6.76433 42.5752 6.923 42.9578C7.08167 43.3358 7.161 43.7488 7.161 44.1968C7.161 44.6682 7.07 45.1092 6.888 45.5198C6.71067 45.9305 6.46567 46.2922 6.153 46.6048C5.845 46.9175 5.48333 47.1625 5.068 47.3398C4.65267 47.5172 4.21167 47.6058 3.745 47.6058ZM3.745 46.4298C4.17433 46.4298 4.557 46.3248 4.893 46.1148C5.23367 45.9048 5.49967 45.6295 5.691 45.2888C5.887 44.9482 5.985 44.5842 5.985 44.1968C5.985 43.7908 5.88467 43.4198 5.684 43.0838C5.488 42.7478 5.21967 42.4795 4.879 42.2788C4.543 42.0735 4.16967 41.9708 3.759 41.9708C3.32967 41.9708 2.947 42.0758 2.611 42.2858C2.275 42.4958 2.009 42.7688 1.813 43.1048C1.62167 43.4408 1.526 43.8048 1.526 44.1968C1.526 44.6215 1.62867 45.0018 1.834 45.3378C2.03933 45.6738 2.31 45.9398 2.646 46.1358C2.98667 46.3318 3.353 46.4298 3.745 46.4298ZM11.7672 47.6058C11.1839 47.6058 10.6612 47.4752 10.1992 47.2138C9.73722 46.9478 9.34055 46.5815 9.00922 46.1148C8.67789 45.6482 8.42589 45.1092 8.25322 44.4978C8.08055 43.8818 7.99422 43.2238 7.99422 42.5238C7.99422 41.8238 8.08055 41.1658 8.25322 40.5498C8.42589 39.9338 8.67789 39.3948 9.00922 38.9328C9.34055 38.4662 9.73722 38.1022 10.1992 37.8408C10.6612 37.5748 11.1839 37.4418 11.7672 37.4418C12.3459 37.4418 12.8662 37.5748 13.3282 37.8408C13.7949 38.1022 14.1892 38.4662 14.5112 38.9328C14.8379 39.3948 15.0876 39.9338 15.2602 40.5498C15.4376 41.1658 15.5262 41.8238 15.5262 42.5238C15.5262 43.2238 15.4376 43.8818 15.2602 44.4978C15.0876 45.1092 14.8379 45.6482 14.5112 46.1148C14.1892 46.5815 13.7949 46.9478 13.3282 47.2138C12.8662 47.4752 12.3459 47.6058 11.7672 47.6058ZM11.7672 46.4298C12.3506 46.4298 12.8382 46.2502 13.2302 45.8908C13.6269 45.5268 13.9232 45.0485 14.1192 44.4558C14.3152 43.8632 14.4132 43.2192 14.4132 42.5238C14.4132 41.7912 14.3106 41.1308 14.1052 40.5428C13.9046 39.9502 13.6059 39.4812 13.2092 39.1358C12.8172 38.7905 12.3366 38.6178 11.7672 38.6178C11.3192 38.6178 10.9272 38.7228 10.5912 38.9328C10.2599 39.1428 9.98455 39.4298 9.76522 39.7938C9.54589 40.1578 9.38022 40.5755 9.26822 41.0468C9.16089 41.5135 9.10722 42.0058 9.10722 42.5238C9.10722 43.2192 9.20755 43.8655 9.40822 44.4628C9.60889 45.0555 9.90522 45.5315 10.2972 45.8908C10.6939 46.2502 11.1839 46.4298 11.7672 46.4298ZM22.4584 47.4238H21.1074L19.2454 44.2108L17.9574 45.7508V47.4238H16.7814V36.9238H17.9574V43.9238L20.8904 40.4238H22.4234L20.0434 43.2588L22.4584 47.4238Z" fill="#718096"/>
<path d="M3.745 97.6058C3.13833 97.6058 2.58767 97.4588 2.093 97.1648C1.59833 96.8708 1.20633 96.4788 0.917 95.9888C0.632333 95.4942 0.49 94.9505 0.49 94.3578H1.666C1.666 94.7358 1.75933 95.0835 1.946 95.4008C2.13267 95.7135 2.38233 95.9632 2.695 96.1498C3.01233 96.3365 3.36233 96.4298 3.745 96.4298C4.123 96.4298 4.46833 96.3365 4.781 96.1498C5.09367 95.9632 5.34333 95.7135 5.53 95.4008C5.71667 95.0835 5.81 94.7358 5.81 94.3578C5.81 93.9798 5.72133 93.6322 5.544 93.3148C5.37133 92.9975 5.117 92.7455 4.781 92.5588C4.445 92.3675 4.03667 92.2718 3.556 92.2718H1.141L2.093 87.6238H6.741V88.7998H3.045L2.59 91.0958L3.605 91.1028C4.27233 91.1168 4.858 91.2662 5.362 91.5508C5.87067 91.8308 6.26733 92.2135 6.552 92.6988C6.84133 93.1795 6.986 93.7325 6.986 94.3578C6.986 94.8012 6.902 95.2212 6.734 95.6178C6.566 96.0098 6.33267 96.3552 6.034 96.6538C5.73533 96.9525 5.39 97.1858 4.998 97.3538C4.61067 97.5218 4.193 97.6058 3.745 97.6058ZM11.5895 97.6058C11.0062 97.6058 10.4835 97.4752 10.0215 97.2138C9.55948 96.9478 9.16282 96.5815 8.83148 96.1148C8.50015 95.6482 8.24815 95.1092 8.07548 94.4978C7.90282 93.8818 7.81648 93.2238 7.81648 92.5238C7.81648 91.8238 7.90282 91.1658 8.07548 90.5498C8.24815 89.9338 8.50015 89.3948 8.83148 88.9328C9.16282 88.4662 9.55948 88.1022 10.0215 87.8408C10.4835 87.5748 11.0062 87.4418 11.5895 87.4418C12.1682 87.4418 12.6885 87.5748 13.1505 87.8408C13.6172 88.1022 14.0115 88.4662 14.3335 88.9328C14.6602 89.3948 14.9098 89.9338 15.0825 90.5498C15.2598 91.1658 15.3485 91.8238 15.3485 92.5238C15.3485 93.2238 15.2598 93.8818 15.0825 94.4978C14.9098 95.1092 14.6602 95.6482 14.3335 96.1148C14.0115 96.5815 13.6172 96.9478 13.1505 97.2138C12.6885 97.4752 12.1682 97.6058 11.5895 97.6058ZM11.5895 96.4298C12.1728 96.4298 12.6605 96.2502 13.0525 95.8908C13.4492 95.5268 13.7455 95.0485 13.9415 94.4558C14.1375 93.8632 14.2355 93.2192 14.2355 92.5238C14.2355 91.7912 14.1328 91.1308 13.9275 90.5428C13.7268 89.9502 13.4282 89.4812 13.0315 89.1358C12.6395 88.7905 12.1588 88.6178 11.5895 88.6178C11.1415 88.6178 10.7495 88.7228 10.4135 88.9328C10.0822 89.1428 9.80682 89.4298 9.58748 89.7938C9.36815 90.1578 9.20248 90.5755 9.09048 91.0468C8.98315 91.5135 8.92948 92.0058 8.92948 92.5238C8.92948 93.2192 9.02982 93.8655 9.23048 94.4628C9.43115 95.0555 9.72748 95.5315 10.1195 95.8908C10.5162 96.2502 11.0062 96.4298 11.5895 96.4298ZM22.2807 97.4238H20.9297L19.0677 94.2108L17.7797 95.7508V97.4238H16.6037V86.9238H17.7797V93.9238L20.7127 90.4238H22.2457L19.8657 93.2588L22.2807 97.4238Z" fill="#718096"/>
<path d="M4.774 147.424V144.778H0.56V143.588L4.48 137.624H5.95V143.602H6.923V144.778H5.95V147.424H4.774ZM1.939 143.588L4.774 143.602L4.753 139.276L1.939 143.588ZM11.5348 147.606C10.9515 147.606 10.4288 147.475 9.9668 147.214C9.5048 146.948 9.10813 146.581 8.7768 146.115C8.44546 145.648 8.19346 145.109 8.0208 144.498C7.84813 143.882 7.7618 143.224 7.7618 142.524C7.7618 141.824 7.84813 141.166 8.0208 140.55C8.19346 139.934 8.44546 139.395 8.7768 138.933C9.10813 138.466 9.5048 138.102 9.9668 137.841C10.4288 137.575 10.9515 137.442 11.5348 137.442C12.1135 137.442 12.6338 137.575 13.0958 137.841C13.5625 138.102 13.9568 138.466 14.2788 138.933C14.6055 139.395 14.8551 139.934 15.0278 140.55C15.2051 141.166 15.2938 141.824 15.2938 142.524C15.2938 143.224 15.2051 143.882 15.0278 144.498C14.8551 145.109 14.6055 145.648 14.2788 146.115C13.9568 146.581 13.5625 146.948 13.0958 147.214C12.6338 147.475 12.1135 147.606 11.5348 147.606ZM11.5348 146.43C12.1181 146.43 12.6058 146.25 12.9978 145.891C13.3945 145.527 13.6908 145.048 13.8868 144.456C14.0828 143.863 14.1808 143.219 14.1808 142.524C14.1808 141.791 14.0781 141.131 13.8728 140.543C13.6721 139.95 13.3735 139.481 12.9768 139.136C12.5848 138.79 12.1041 138.618 11.5348 138.618C11.0868 138.618 10.6948 138.723 10.3588 138.933C10.0275 139.143 9.75213 139.43 9.5328 139.794C9.31346 140.158 9.1478 140.575 9.0358 141.047C8.92846 141.513 8.8748 142.006 8.8748 142.524C8.8748 143.219 8.97513 143.865 9.1758 144.463C9.37646 145.055 9.6728 145.531 10.0648 145.891C10.4615 146.25 10.9515 146.43 11.5348 146.43ZM22.226 147.424H20.875L19.013 144.211L17.725 145.751V147.424H16.549V136.924H17.725V143.924L20.658 140.424H22.191L19.811 143.259L22.226 147.424Z" fill="#718096"/>
<path d="M3.472 197.606C2.87933 197.606 2.352 197.473 1.89 197.207C1.43267 196.936 1.07333 196.577 0.812 196.129C0.550667 195.676 0.42 195.174 0.42 194.624H1.596C1.596 194.955 1.673 195.258 1.827 195.534C1.981 195.804 2.198 196.021 2.478 196.185C2.758 196.348 3.08933 196.43 3.472 196.43C3.80333 196.43 4.11133 196.348 4.396 196.185C4.68533 196.021 4.91867 195.804 5.096 195.534C5.27333 195.258 5.362 194.955 5.362 194.624C5.362 194.208 5.25467 193.863 5.04 193.588C4.83 193.308 4.536 193.1 4.158 192.965C3.78467 192.825 3.35767 192.755 2.877 192.755V191.81C3.53967 191.81 4.06933 191.672 4.466 191.397C4.86733 191.121 5.068 190.715 5.068 190.179C5.068 189.894 4.991 189.633 4.837 189.395C4.683 189.157 4.48 188.968 4.228 188.828C3.98067 188.683 3.71467 188.611 3.43 188.611C3.14067 188.611 2.863 188.683 2.597 188.828C2.331 188.968 2.114 189.157 1.946 189.395C1.778 189.633 1.694 189.894 1.694 190.179H0.518C0.518 189.801 0.595 189.446 0.749 189.115C0.907667 188.783 1.12233 188.492 1.393 188.24C1.66833 187.988 1.97867 187.792 2.324 187.652C2.66933 187.507 3.03333 187.435 3.416 187.435C3.91533 187.435 4.37967 187.558 4.809 187.806C5.23833 188.053 5.58367 188.384 5.845 188.8C6.111 189.215 6.244 189.675 6.244 190.179C6.244 190.631 6.12967 191.049 5.901 191.432C5.67233 191.814 5.362 192.083 4.97 192.237C5.31067 192.353 5.59767 192.535 5.831 192.783C6.06433 193.025 6.23933 193.305 6.356 193.623C6.47733 193.94 6.538 194.274 6.538 194.624C6.538 195.17 6.39567 195.669 6.111 196.122C5.831 196.574 5.45767 196.936 4.991 197.207C4.529 197.473 4.02267 197.606 3.472 197.606ZM11.152 197.606C10.5687 197.606 10.046 197.475 9.58398 197.214C9.12198 196.948 8.72532 196.581 8.39398 196.115C8.06265 195.648 7.81065 195.109 7.63798 194.498C7.46532 193.882 7.37898 193.224 7.37898 192.524C7.37898 191.824 7.46532 191.166 7.63798 190.55C7.81065 189.934 8.06265 189.395 8.39398 188.933C8.72532 188.466 9.12198 188.102 9.58398 187.841C10.046 187.575 10.5687 187.442 11.152 187.442C11.7307 187.442 12.251 187.575 12.713 187.841C13.1797 188.102 13.574 188.466 13.896 188.933C14.2227 189.395 14.4723 189.934 14.645 190.55C14.8223 191.166 14.911 191.824 14.911 192.524C14.911 193.224 14.8223 193.882 14.645 194.498C14.4723 195.109 14.2227 195.648 13.896 196.115C13.574 196.581 13.1797 196.948 12.713 197.214C12.251 197.475 11.7307 197.606 11.152 197.606ZM11.152 196.43C11.7353 196.43 12.223 196.25 12.615 195.891C13.0117 195.527 13.308 195.048 13.504 194.456C13.7 193.863 13.798 193.219 13.798 192.524C13.798 191.791 13.6953 191.131 13.49 190.543C13.2893 189.95 12.9907 189.481 12.594 189.136C12.202 188.79 11.7213 188.618 11.152 188.618C10.704 188.618 10.312 188.723 9.97598 188.933C9.64465 189.143 9.36932 189.43 9.14998 189.794C8.93065 190.158 8.76498 190.575 8.65298 191.047C8.54565 191.513 8.49198 192.006 8.49198 192.524C8.49198 193.219 8.59232 193.865 8.79298 194.463C8.99365 195.055 9.28998 195.531 9.68198 195.891C10.0787 196.25 10.5687 196.43 11.152 196.43ZM21.8432 197.424H20.4922L18.6302 194.211L17.3422 195.751V197.424H16.1662V186.924H17.3422V193.924L20.2752 190.424H21.8082L19.4282 193.259L21.8432 197.424Z" fill="#718096"/>
<path d="M59.093 225.821C58.7663 225.821 58.4467 225.765 58.134 225.653C57.8213 225.545 57.5367 225.382 57.28 225.163L58.029 224.253C58.1643 224.369 58.3207 224.465 58.498 224.54C58.68 224.61 58.8783 224.645 59.093 224.645C59.401 224.645 59.681 224.563 59.933 224.4C60.185 224.236 60.3857 224.022 60.535 223.756C60.689 223.49 60.766 223.205 60.766 222.902V215.839H61.942V222.902C61.942 223.424 61.8137 223.907 61.557 224.351C61.3003 224.789 60.9573 225.144 60.528 225.415C60.0987 225.685 59.6203 225.821 59.093 225.821ZM69.2512 218.639H70.4272V225.639H69.2512L69.2022 224.456C68.9829 224.862 68.6795 225.191 68.2922 225.443C67.9095 225.695 67.4522 225.821 66.9202 225.821C66.4069 225.821 65.9262 225.725 65.4782 225.534C65.0302 225.338 64.6335 225.069 64.2882 224.729C63.9475 224.383 63.6815 223.987 63.4902 223.539C63.2989 223.091 63.2032 222.608 63.2032 222.09C63.2032 221.59 63.2965 221.119 63.4832 220.676C63.6699 220.232 63.9289 219.845 64.2602 219.514C64.5962 219.178 64.9835 218.916 65.4222 218.73C65.8609 218.538 66.3322 218.443 66.8362 218.443C67.3869 218.443 67.8699 218.573 68.2852 218.835C68.7005 219.091 69.0365 219.425 69.2932 219.836L69.2512 218.639ZM66.8992 224.68C67.3612 224.68 67.7602 224.568 68.0962 224.344C68.4369 224.115 68.6982 223.807 68.8802 223.42C69.0669 223.032 69.1602 222.605 69.1602 222.139C69.1602 221.663 69.0669 221.233 68.8802 220.851C68.6935 220.463 68.4299 220.158 68.0892 219.934C67.7532 219.705 67.3565 219.591 66.8992 219.591C66.4372 219.591 66.0172 219.705 65.6392 219.934C65.2612 220.162 64.9602 220.47 64.7362 220.858C64.5169 221.24 64.4072 221.667 64.4072 222.139C64.4072 222.61 64.5215 223.039 64.7502 223.427C64.9789 223.809 65.2822 224.115 65.6602 224.344C66.0382 224.568 66.4512 224.68 66.8992 224.68ZM78.0143 221.285V225.639H76.8383V221.544C76.8383 221.189 76.752 220.867 76.5793 220.578C76.4067 220.288 76.1757 220.06 75.8863 219.892C75.597 219.719 75.275 219.633 74.9203 219.633C74.5703 219.633 74.2483 219.719 73.9543 219.892C73.665 220.06 73.434 220.288 73.2613 220.578C73.0887 220.867 73.0023 221.189 73.0023 221.544V225.639H71.8263V218.639H73.0023V219.514C73.2497 219.187 73.5623 218.928 73.9403 218.737C74.3183 218.541 74.729 218.443 75.1723 218.443C75.695 218.443 76.171 218.571 76.6003 218.828C77.0343 219.08 77.3773 219.42 77.6293 219.85C77.886 220.279 78.0143 220.757 78.0143 221.285Z" fill="#718096"/>
<path d="M150.34 225.639V215.839H156.087V217.015H151.516V219.801H155.415V220.977H151.516V225.639H150.34ZM159.504 225.821C158.86 225.821 158.272 225.655 157.74 225.324C157.213 224.992 156.79 224.549 156.473 223.994C156.16 223.434 156.004 222.815 156.004 222.139C156.004 221.625 156.095 221.147 156.277 220.704C156.459 220.256 156.709 219.864 157.026 219.528C157.348 219.187 157.721 218.921 158.146 218.73C158.571 218.538 159.023 218.443 159.504 218.443C160.031 218.443 160.514 218.55 160.953 218.765C161.396 218.975 161.774 219.269 162.087 219.647C162.404 220.025 162.64 220.463 162.794 220.963C162.953 221.462 163.011 221.996 162.969 222.566H157.257C157.313 222.962 157.444 223.317 157.649 223.63C157.854 223.938 158.116 224.183 158.433 224.365C158.755 224.547 159.112 224.64 159.504 224.645C159.924 224.645 160.304 224.537 160.645 224.323C160.986 224.103 161.261 223.805 161.471 223.427L162.668 223.707C162.388 224.327 161.966 224.836 161.401 225.233C160.836 225.625 160.204 225.821 159.504 225.821ZM157.222 221.642H161.786C161.749 221.25 161.623 220.893 161.408 220.571C161.193 220.244 160.92 219.983 160.589 219.787C160.258 219.591 159.896 219.493 159.504 219.493C159.112 219.493 158.753 219.588 158.426 219.78C158.099 219.971 157.829 220.23 157.614 220.557C157.404 220.879 157.273 221.24 157.222 221.642ZM167.622 218.443C168.304 218.443 168.922 218.608 169.477 218.94C170.037 219.271 170.483 219.717 170.814 220.277C171.146 220.832 171.311 221.45 171.311 222.132C171.311 222.64 171.216 223.119 171.024 223.567C170.833 224.01 170.567 224.402 170.226 224.743C169.89 225.079 169.498 225.342 169.05 225.534C168.607 225.725 168.131 225.821 167.622 225.821C167.081 225.821 166.61 225.695 166.208 225.443C165.812 225.186 165.494 224.852 165.256 224.442V225.639H164.08V215.139H165.256V219.822C165.494 219.411 165.812 219.08 166.208 218.828C166.61 218.571 167.081 218.443 167.622 218.443ZM167.608 224.673C168.07 224.673 168.49 224.558 168.868 224.33C169.246 224.101 169.547 223.795 169.771 223.413C169.995 223.025 170.107 222.598 170.107 222.132C170.107 221.656 169.993 221.226 169.764 220.844C169.536 220.456 169.232 220.151 168.854 219.927C168.476 219.698 168.061 219.584 167.608 219.584C167.151 219.584 166.752 219.698 166.411 219.927C166.075 220.155 165.814 220.463 165.627 220.851C165.445 221.238 165.354 221.665 165.354 222.132C165.354 222.603 165.445 223.032 165.627 223.42C165.814 223.802 166.078 224.108 166.418 224.337C166.759 224.561 167.156 224.673 167.608 224.673Z" fill="#718096"/>
<path d="M243.84 225.639L245.737 215.839H246.64L249.286 222.797L251.925 215.839H252.828L254.732 225.639H253.535L252.156 218.527L249.671 225.107H248.894L246.409 218.527L245.037 225.639H243.84ZM261.431 218.639H262.607V225.639H261.431L261.382 224.456C261.163 224.862 260.859 225.191 260.472 225.443C260.089 225.695 259.632 225.821 259.1 225.821C258.587 225.821 258.106 225.725 257.658 225.534C257.21 225.338 256.813 225.069 256.468 224.729C256.127 224.383 255.861 223.987 255.67 223.539C255.479 223.091 255.383 222.608 255.383 222.09C255.383 221.59 255.476 221.119 255.663 220.676C255.85 220.232 256.109 219.845 256.44 219.514C256.776 219.178 257.163 218.916 257.602 218.73C258.041 218.538 258.512 218.443 259.016 218.443C259.567 218.443 260.05 218.573 260.465 218.835C260.88 219.091 261.216 219.425 261.473 219.836L261.431 218.639ZM259.079 224.68C259.541 224.68 259.94 224.568 260.276 224.344C260.617 224.115 260.878 223.807 261.06 223.42C261.247 223.032 261.34 222.605 261.34 222.139C261.34 221.663 261.247 221.233 261.06 220.851C260.873 220.463 260.61 220.158 260.269 219.934C259.933 219.705 259.536 219.591 259.079 219.591C258.617 219.591 258.197 219.705 257.819 219.934C257.441 220.162 257.14 220.47 256.916 220.858C256.697 221.24 256.587 221.667 256.587 222.139C256.587 222.61 256.701 223.039 256.93 223.427C257.159 223.809 257.462 224.115 257.84 224.344C258.218 224.568 258.631 224.68 259.079 224.68ZM264.006 225.639V218.639H265.182V219.514C265.429 219.187 265.742 218.928 266.12 218.737C266.498 218.541 266.909 218.443 267.352 218.443C267.623 218.443 267.884 218.478 268.136 218.548L267.66 219.724C267.469 219.663 267.282 219.633 267.1 219.633C266.75 219.633 266.428 219.719 266.134 219.892C265.845 220.06 265.614 220.288 265.441 220.578C265.268 220.867 265.182 221.189 265.182 221.544V225.639H264.006Z" fill="#718096"/>
<path d="M343.623 215.839H345.044L348.607 225.639H347.361L346.633 223.637H342.034L341.313 225.639H340.06L343.623 215.839ZM342.468 222.461H346.199L344.33 217.344L342.468 222.461ZM350.909 229.139H349.733V218.639H350.909V219.836C351.147 219.425 351.464 219.094 351.861 218.842C352.257 218.585 352.729 218.457 353.275 218.457C353.783 218.457 354.259 218.552 354.703 218.744C355.151 218.935 355.543 219.201 355.879 219.542C356.215 219.878 356.478 220.267 356.67 220.711C356.861 221.154 356.957 221.63 356.957 222.139C356.957 222.647 356.861 223.126 356.67 223.574C356.478 224.022 356.215 224.416 355.879 224.757C355.543 225.093 355.151 225.356 354.703 225.548C354.259 225.739 353.783 225.835 353.275 225.835C352.729 225.835 352.257 225.709 351.861 225.457C351.464 225.2 351.147 224.866 350.909 224.456V229.139ZM353.261 219.598C352.808 219.598 352.411 219.712 352.071 219.941C351.73 220.169 351.466 220.475 351.28 220.858C351.098 221.24 351.007 221.667 351.007 222.139C351.007 222.605 351.098 223.032 351.28 223.42C351.466 223.807 351.728 224.115 352.064 224.344C352.404 224.572 352.803 224.687 353.261 224.687C353.713 224.687 354.129 224.575 354.507 224.351C354.885 224.122 355.188 223.816 355.417 223.434C355.645 223.046 355.76 222.615 355.76 222.139C355.76 221.672 355.648 221.247 355.424 220.865C355.2 220.477 354.899 220.169 354.521 219.941C354.143 219.712 353.723 219.598 353.261 219.598ZM358.127 225.639V218.639H359.303V219.514C359.55 219.187 359.863 218.928 360.241 218.737C360.619 218.541 361.03 218.443 361.473 218.443C361.744 218.443 362.005 218.478 362.257 218.548L361.781 219.724C361.59 219.663 361.403 219.633 361.221 219.633C360.871 219.633 360.549 219.719 360.255 219.892C359.966 220.06 359.735 220.288 359.562 220.578C359.389 220.867 359.303 221.189 359.303 221.544V225.639H358.127Z" fill="#718096"/>
<path d="M433.84 225.639L435.737 215.839H436.64L439.286 222.797L441.925 215.839H442.828L444.732 225.639H443.535L442.156 218.527L439.671 225.107H438.894L436.409 218.527L435.037 225.639H433.84ZM451.431 218.639H452.607V225.639H451.431L451.382 224.456C451.163 224.862 450.859 225.191 450.472 225.443C450.089 225.695 449.632 225.821 449.1 225.821C448.587 225.821 448.106 225.725 447.658 225.534C447.21 225.338 446.813 225.069 446.468 224.729C446.127 224.383 445.861 223.987 445.67 223.539C445.479 223.091 445.383 222.608 445.383 222.09C445.383 221.59 445.476 221.119 445.663 220.676C445.85 220.232 446.109 219.845 446.44 219.514C446.776 219.178 447.163 218.916 447.602 218.73C448.041 218.538 448.512 218.443 449.016 218.443C449.567 218.443 450.05 218.573 450.465 218.835C450.88 219.091 451.216 219.425 451.473 219.836L451.431 218.639ZM449.079 224.68C449.541 224.68 449.94 224.568 450.276 224.344C450.617 224.115 450.878 223.807 451.06 223.42C451.247 223.032 451.34 222.605 451.34 222.139C451.34 221.663 451.247 221.233 451.06 220.851C450.873 220.463 450.61 220.158 450.269 219.934C449.933 219.705 449.536 219.591 449.079 219.591C448.617 219.591 448.197 219.705 447.819 219.934C447.441 220.162 447.14 220.47 446.916 220.858C446.697 221.24 446.587 221.667 446.587 222.139C446.587 222.61 446.701 223.039 446.93 223.427C447.159 223.809 447.462 224.115 447.84 224.344C448.218 224.568 448.631 224.68 449.079 224.68ZM458.582 218.639H459.828L455.999 229.139H454.753L456.02 225.639L453.507 218.639H454.795L456.608 224.022L458.582 218.639Z" fill="#718096"/>
<path d="M533.593 225.821C533.266 225.821 532.947 225.765 532.634 225.653C532.321 225.545 532.037 225.382 531.78 225.163L532.529 224.253C532.664 224.369 532.821 224.465 532.998 224.54C533.18 224.61 533.378 224.645 533.593 224.645C533.901 224.645 534.181 224.563 534.433 224.4C534.685 224.236 534.886 224.022 535.035 223.756C535.189 223.49 535.266 223.205 535.266 222.902V215.839H536.442V222.902C536.442 223.424 536.314 223.907 536.057 224.351C535.8 224.789 535.457 225.144 535.028 225.415C534.599 225.685 534.12 225.821 533.593 225.821ZM537.843 222.979V218.639H539.019V222.72C539.019 223.074 539.106 223.396 539.278 223.686C539.451 223.975 539.682 224.206 539.971 224.379C540.265 224.547 540.587 224.631 540.937 224.631C541.292 224.631 541.612 224.547 541.896 224.379C542.186 224.206 542.417 223.975 542.589 223.686C542.762 223.396 542.848 223.074 542.848 222.72V218.639H544.024L544.031 225.639H542.855L542.848 224.75C542.601 225.076 542.288 225.338 541.91 225.534C541.532 225.725 541.124 225.821 540.685 225.821C540.163 225.821 539.684 225.695 539.25 225.443C538.821 225.186 538.478 224.843 538.221 224.414C537.969 223.984 537.843 223.506 537.843 222.979ZM551.626 221.285V225.639H550.45V221.544C550.45 221.189 550.363 220.867 550.191 220.578C550.018 220.288 549.787 220.06 549.498 219.892C549.208 219.719 548.886 219.633 548.532 219.633C548.182 219.633 547.86 219.719 547.566 219.892C547.276 220.06 547.045 220.288 546.873 220.578C546.7 220.867 546.614 221.189 546.614 221.544V225.639H545.438V218.639H546.614V219.514C546.861 219.187 547.174 218.928 547.552 218.737C547.93 218.541 548.34 218.443 548.784 218.443C549.306 218.443 549.782 218.571 550.212 218.828C550.646 219.08 550.989 219.42 551.241 219.85C551.497 220.279 551.626 220.757 551.626 221.285Z" fill="#718096"/>
<path d="M625.093 225.821C624.766 225.821 624.447 225.765 624.134 225.653C623.821 225.545 623.537 225.382 623.28 225.163L624.029 224.253C624.164 224.369 624.321 224.465 624.498 224.54C624.68 224.61 624.878 224.645 625.093 224.645C625.401 224.645 625.681 224.563 625.933 224.4C626.185 224.236 626.386 224.022 626.535 223.756C626.689 223.49 626.766 223.205 626.766 222.902V215.839H627.942V222.902C627.942 223.424 627.814 223.907 627.557 224.351C627.3 224.789 626.957 225.144 626.528 225.415C626.099 225.685 625.62 225.821 625.093 225.821ZM629.343 222.979V218.639H630.519V222.72C630.519 223.074 630.606 223.396 630.778 223.686C630.951 223.975 631.182 224.206 631.471 224.379C631.765 224.547 632.087 224.631 632.437 224.631C632.792 224.631 633.112 224.547 633.396 224.379C633.686 224.206 633.917 223.975 634.089 223.686C634.262 223.396 634.348 223.074 634.348 222.72V218.639H635.524L635.531 225.639H634.355L634.348 224.75C634.101 225.076 633.788 225.338 633.41 225.534C633.032 225.725 632.624 225.821 632.185 225.821C631.663 225.821 631.184 225.695 630.75 225.443C630.321 225.186 629.978 224.843 629.721 224.414C629.469 223.984 629.343 223.506 629.343 222.979ZM637.02 225.639V215.139H638.196V225.639H637.02Z" fill="#718096"/>
<path d="M50.2927 23.6323C50.2927 21.4232 52.0836 19.6323 54.2927 19.6323H61.5481C63.0313 19.6323 64.3927 20.453 65.0853 21.7646L66.8203 25.0505C69.0721 29.3151 75.1801 29.3151 77.4318 25.0505L79.1668 21.7646C79.8594 20.453 81.2208 19.6323 82.704 19.6323H90.2927C92.5019 19.6323 94.2927 21.4232 94.2927 23.6323V189.632C94.2927 191.841 92.5019 193.632 90.2927 193.632H54.2927C52.0836 193.632 50.2927 191.841 50.2927 189.632V23.6323Z" fill="#EAFBF7"/>
<line x1="72.5" y1="33.6406" x2="72.5" y2="192.943" stroke="white" stroke-linecap="round"/>
<path d="M143.293 23.6323C143.293 21.4232 145.084 19.6323 147.293 19.6323H154.548C156.031 19.6323 157.393 20.453 158.085 21.7646L159.82 25.0505C162.072 29.3151 168.18 29.3151 170.432 25.0505L172.167 21.7646C172.859 20.453 174.221 19.6323 175.704 19.6323H183.293C185.502 19.6323 187.293 21.4232 187.293 23.6323V189.632C187.293 191.841 185.502 193.632 183.293 193.632H147.293C145.084 193.632 143.293 191.841 143.293 189.632V23.6323Z" fill="#EAFBF7"/>
<line x1="165.5" y1="33.6406" x2="165.5" y2="192.943" stroke="white" stroke-linecap="round"/>
<path d="M236.293 23.6323C236.293 21.4232 238.084 19.6323 240.293 19.6323H247.548C249.031 19.6323 250.393 20.453 251.085 21.7646L252.82 25.0505C255.072 29.3151 261.18 29.3151 263.432 25.0505L265.167 21.7646C265.859 20.453 267.221 19.6323 268.704 19.6323H276.293C278.502 19.6323 280.293 21.4232 280.293 23.6323V189.632C280.293 191.841 278.502 193.632 276.293 193.632H240.293C238.084 193.632 236.293 191.841 236.293 189.632V23.6323Z" fill="#EAFBF7"/>
<line x1="258.5" y1="33.6406" x2="258.5" y2="192.943" stroke="white" stroke-linecap="round"/>
<path d="M329.293 23.6323C329.293 21.4232 331.084 19.6323 333.293 19.6323H340.548C342.031 19.6323 343.393 20.453 344.085 21.7646L345.82 25.0505C348.072 29.3151 354.18 29.3151 356.432 25.0505L358.167 21.7646C358.859 20.453 360.221 19.6323 361.704 19.6323H369.293C371.502 19.6323 373.293 21.4232 373.293 23.6323V189.632C373.293 191.841 371.502 193.632 369.293 193.632H333.293C331.084 193.632 329.293 191.841 329.293 189.632V23.6323Z" fill="url(#paint0_linear_5260_91)"/>
<line x1="351.5" y1="33.6406" x2="351.5" y2="192.943" stroke="white" stroke-linecap="round"/>
<path d="M422.293 23.6323C422.293 21.4232 424.084 19.6323 426.293 19.6323H433.548C435.031 19.6323 436.393 20.453 437.085 21.7646L438.82 25.0505C441.072 29.3151 447.18 29.3151 449.432 25.0505L451.167 21.7646C451.859 20.453 453.221 19.6323 454.704 19.6323H462.293C464.502 19.6323 466.293 21.4232 466.293 23.6323V189.632C466.293 191.841 464.502 193.632 462.293 193.632H426.293C424.084 193.632 422.293 191.841 422.293 189.632V23.6323Z" fill="#EAFBF7"/>
<line x1="444.5" y1="33.6406" x2="444.5" y2="192.943" stroke="white" stroke-linecap="round"/>
<path d="M515.293 23.6323C515.293 21.4232 517.084 19.6323 519.293 19.6323H526.548C528.031 19.6323 529.393 20.453 530.085 21.7646L531.82 25.0505C534.072 29.3151 540.18 29.3151 542.432 25.0505L544.167 21.7646C544.859 20.453 546.221 19.6323 547.704 19.6323H555.293C557.502 19.6323 559.293 21.4232 559.293 23.6323V189.632C559.293 191.841 557.502 193.632 555.293 193.632H519.293C517.084 193.632 515.293 191.841 515.293 189.632V23.6323Z" fill="#EAFBF7"/>
<line x1="537.5" y1="33.6406" x2="537.5" y2="192.943" stroke="white" stroke-linecap="round"/>
<path d="M608.293 23.6323C608.293 21.4232 610.084 19.6323 612.293 19.6323H619.548C621.032 19.6323 622.393 20.453 623.086 21.7646L624.821 25.0505C627.072 29.3151 633.18 29.3151 635.432 25.0505L637.167 21.7646C637.86 20.453 639.221 19.6323 640.704 19.6323H648.293C650.502 19.6323 652.293 21.4232 652.293 23.6323V189.632C652.293 191.841 650.502 193.632 648.293 193.632H612.293C610.084 193.632 608.293 191.841 608.293 189.632V23.6323Z" fill="#EAFBF7"/>
<line x1="630.5" y1="33.6406" x2="630.5" y2="192.943" stroke="white" stroke-linecap="round"/>
<path d="M652 146.612L632.59 153.567C627.187 155.503 621.341 155.848 615.747 154.561L601.646 151.318C598.746 150.651 595.962 149.556 593.385 148.07L570.231 134.719L567.089 133.169C553.184 126.312 536.346 131.179 528.243 144.397L519.279 159.022C516.389 163.736 512.253 167.56 507.327 170.071L499.185 174.221C492.035 177.866 483.581 177.906 476.397 174.329V174.329C466.676 169.489 454.95 171.385 447.251 179.044L442.568 183.702C436.548 189.691 428.227 192.775 419.758 192.157V192.157C410.705 191.496 402.469 186.68 397.455 179.114L385.891 161.669C381.108 154.452 373.44 149.654 364.858 148.507L361.081 148.002C354.346 147.103 348.116 143.943 343.41 139.041L334.308 129.558C327.61 122.579 317.957 119.258 308.383 120.639L304.248 121.235C298.821 122.018 293.282 121.298 288.235 119.153L283.106 116.974C274.196 113.188 264.006 113.935 255.743 118.979L255.079 119.384C246.434 124.662 235.71 125.221 226.563 120.871L222.239 118.815C217.017 116.331 211.116 115.657 205.467 116.898V116.898C194.213 119.37 182.671 114.153 177.093 104.071L170.849 92.7871C164.318 80.9837 150.081 75.8075 137.494 80.6606V80.6606C133.725 82.1137 129.679 82.7032 125.652 82.3856L122.767 82.158C111.672 81.2829 101.004 86.6223 95.054 96.0285L82.4069 116.024C78.9249 121.529 73.7458 125.751 67.6521 128.052L49.9999 134.719" stroke="#B8E716" stroke-width="3" stroke-linecap="round" stroke-linejoin="round"/>
<path d="M50 116.225L77.0417 107.961L99.2099 100.019C102.812 98.7279 106.71 98.4978 110.439 99.3556L128.853 103.591C130.786 104.036 132.642 104.766 134.361 105.756L158.811 119.855L170.134 125.439C179.403 130.01 190.629 126.765 196.031 117.954L211.236 93.1488C213.162 90.0062 215.92 87.457 219.204 85.7829L232.246 79.1342C237.893 76.2555 244.57 76.224 250.244 79.0491L264.869 86.3315C267.529 87.6559 270.45 88.371 273.421 88.4249L298.055 88.8717C300.66 88.919 303.249 88.4569 305.676 87.5115L339.137 74.4797C346.539 71.5967 354.946 73.3681 360.556 78.993L363 81.4433L376.5 101.443L387.648 117.237C388.215 118.04 388.841 118.8 389.52 119.512L405.999 136.778C411.37 142.404 420.182 142.906 426.156 137.924V137.924C430.413 134.374 436.299 133.505 441.401 135.673L450.667 139.61C456.608 142.134 463.401 141.637 468.91 138.273L478.581 132.37C484.344 128.851 491.494 128.478 497.592 131.378L508.671 136.648C512.683 138.555 517.215 139.073 521.553 138.12L527.976 136.709C536.619 134.81 545.483 138.817 549.767 146.56L561.151 167.133C565.986 175.872 576.527 179.704 585.846 176.111L593.034 173.34C595.824 172.264 598.82 171.828 601.802 172.063L612.288 172.89C619.685 173.473 626.797 169.914 630.763 163.643L652 130.068" stroke="#DEE33E" stroke-width="3" stroke-linecap="round" stroke-linejoin="round"/>
<g filter="url(#filter0_d_5260_91)">
<ellipse cx="351" cy="73.4951" rx="6" ry="6.00586" fill="white"/>
<path d="M356 73.4951C356 76.2607 353.761 78.501 351 78.501C348.239 78.501 346 76.2607 346 73.4951C346 70.7295 348.239 68.4893 351 68.4893C353.761 68.4893 356 70.7295 356 73.4951Z" stroke="#DEE33E" stroke-width="2"/>
</g>
<g filter="url(#filter1_d_5260_91)">
<rect x="391" y="34.4834" width="88" height="54" rx="8" fill="white" shape-rendering="crispEdges"/>
<path d="M400.161 58.4834V56.7754C400.399 56.7754 400.641 56.7451 400.889 56.6844C401.136 56.6237 401.355 56.5374 401.547 56.4254C401.743 56.3087 401.88 56.1687 401.96 56.0054C402.044 55.8421 402.041 55.6601 401.953 55.4594C401.906 55.2821 401.824 55.1141 401.708 54.9554C401.591 54.7921 401.458 54.6311 401.309 54.4724C401.159 54.3091 401.008 54.1434 400.854 53.9754C400.7 53.8027 400.557 53.6231 400.427 53.4364C400.296 53.2451 400.191 53.0421 400.112 52.8274C400.032 52.6081 399.993 52.3724 399.993 52.1204C399.993 51.6211 400.086 51.1544 400.273 50.7204C400.464 50.2864 400.725 49.9037 401.057 49.5724C401.393 49.2364 401.778 48.9751 402.212 48.7884C402.646 48.5971 403.112 48.5014 403.612 48.5014C404.111 48.5014 404.58 48.5971 405.019 48.7884C405.457 48.9751 405.842 49.2341 406.174 49.5654C406.51 49.8967 406.771 50.2817 406.958 50.7204C407.144 51.1544 407.238 51.6211 407.238 52.1204H405.53C405.53 51.7704 405.443 51.4507 405.271 51.1614C405.098 50.8721 404.865 50.6411 404.571 50.4684C404.281 50.2957 403.962 50.2094 403.612 50.2094C403.262 50.2094 402.942 50.2957 402.653 50.4684C402.363 50.6411 402.132 50.8721 401.96 51.1614C401.787 51.4507 401.701 51.7704 401.701 52.1204C401.701 52.4097 401.75 52.6617 401.848 52.8764C401.946 53.0911 402.072 53.2871 402.226 53.4644C402.38 53.6417 402.543 53.8144 402.716 53.9824C402.893 54.1457 403.059 54.3207 403.213 54.5074C403.367 54.6941 403.493 54.9064 403.591 55.1444C403.689 55.3777 403.738 55.6554 403.738 55.9774C403.738 56.0894 403.719 56.1991 403.682 56.3064C403.644 56.4091 403.6 56.5024 403.549 56.5864C403.497 56.6704 403.444 56.7334 403.388 56.7754H407.098V58.4834H400.161ZM400.161 55.3614V54.1924H405.551V55.3614H400.161ZM411.65 58.6654C411.02 58.6654 410.45 58.5137 409.942 58.2104C409.433 57.9024 409.029 57.4941 408.731 56.9854C408.437 56.4767 408.29 55.9191 408.29 55.3124H409.998C409.998 55.6157 410.072 55.8934 410.222 56.1454C410.371 56.3927 410.569 56.5911 410.817 56.7404C411.069 56.8851 411.346 56.9574 411.65 56.9574C411.953 56.9574 412.228 56.8851 412.476 56.7404C412.723 56.5911 412.921 56.3927 413.071 56.1454C413.22 55.8934 413.295 55.6157 413.295 55.3124C413.295 55.0091 413.229 54.7314 413.099 54.4794C412.973 54.2227 412.765 54.0197 412.476 53.8704C412.191 53.7164 411.813 53.6394 411.342 53.6394H408.822L409.858 48.6834H414.674V50.3914H411.244L410.929 51.9314L411.622 51.9384C412.284 51.9617 412.87 52.1227 413.379 52.4214C413.887 52.7201 414.284 53.1214 414.569 53.6254C414.858 54.1247 415.003 54.6871 415.003 55.3124C415.003 55.7697 414.916 56.2014 414.744 56.6074C414.571 57.0134 414.331 57.3704 414.023 57.6784C413.715 57.9864 413.358 58.2291 412.952 58.4064C412.55 58.5791 412.116 58.6654 411.65 58.6654ZM416.399 58.4834V56.9574C416.702 56.7287 417.062 56.4464 417.477 56.1104C417.892 55.7697 418.319 55.4034 418.758 55.0114C419.197 54.6147 419.603 54.2181 419.976 53.8214C420.349 53.4247 420.653 53.0467 420.886 52.6874C421.124 52.3281 421.243 52.0201 421.243 51.7634C421.243 51.4787 421.173 51.2197 421.033 50.9864C420.893 50.7484 420.706 50.5594 420.473 50.4194C420.244 50.2794 419.988 50.2094 419.703 50.2094C419.418 50.2094 419.159 50.2794 418.926 50.4194C418.693 50.5594 418.506 50.7484 418.366 50.9864C418.226 51.2197 418.156 51.4787 418.156 51.7634H416.448C416.448 51.1474 416.597 50.5944 416.896 50.1044C417.195 49.6097 417.589 49.2201 418.079 48.9354C418.574 48.6461 419.115 48.5014 419.703 48.5014C420.3 48.5014 420.844 48.6484 421.334 48.9424C421.824 49.2317 422.216 49.6237 422.51 50.1184C422.804 50.6131 422.951 51.1614 422.951 51.7634C422.951 52.0807 422.893 52.4004 422.776 52.7224C422.659 53.0444 422.496 53.3687 422.286 53.6954C422.076 54.0221 421.829 54.3534 421.544 54.6894C421.259 55.0207 420.944 55.3614 420.599 55.7114C420.258 56.0567 419.899 56.4114 419.521 56.7754H423V58.4834H416.399ZM424.397 59.2674L424.831 56.9014H426.539L425.538 59.2674H424.397ZM431.172 58.6654C430.547 58.6654 429.973 58.5091 429.45 58.1964C428.927 57.8837 428.51 57.4661 428.197 56.9434C427.884 56.4207 427.728 55.8421 427.728 55.2074C427.728 54.8807 427.765 54.5774 427.84 54.2974C427.919 54.0174 428.041 53.7351 428.204 53.4504L430.948 48.6834H432.929L431.088 51.8684C431.466 51.8404 431.83 51.8731 432.18 51.9664C432.53 52.0597 432.854 52.2067 433.153 52.4074C433.452 52.6081 433.713 52.8507 433.937 53.1354C434.161 53.4201 434.334 53.7374 434.455 54.0874C434.581 54.4374 434.644 54.8107 434.644 55.2074C434.644 55.6834 434.553 56.1291 434.371 56.5444C434.194 56.9597 433.946 57.3284 433.629 57.6504C433.312 57.9677 432.943 58.2174 432.523 58.3994C432.103 58.5767 431.653 58.6654 431.172 58.6654ZM431.172 56.9574C431.513 56.9574 431.816 56.8757 432.082 56.7124C432.348 56.5444 432.556 56.3274 432.705 56.0614C432.859 55.7954 432.936 55.5131 432.936 55.2144C432.936 54.8924 432.859 54.5984 432.705 54.3324C432.551 54.0664 432.341 53.8541 432.075 53.6954C431.814 53.5367 431.517 53.4574 431.186 53.4574C430.845 53.4574 430.542 53.5414 430.276 53.7094C430.015 53.8727 429.809 54.0874 429.66 54.3534C429.511 54.6194 429.436 54.9064 429.436 55.2144C429.436 55.5457 429.518 55.8421 429.681 56.1034C429.844 56.3647 430.057 56.5724 430.318 56.7264C430.584 56.8804 430.869 56.9574 431.172 56.9574ZM438.912 58.6654C438.282 58.6654 437.712 58.5137 437.204 58.2104C436.695 57.9024 436.291 57.4941 435.993 56.9854C435.699 56.4767 435.552 55.9191 435.552 55.3124H437.26C437.26 55.6157 437.334 55.8934 437.484 56.1454C437.633 56.3927 437.831 56.5911 438.079 56.7404C438.331 56.8851 438.608 56.9574 438.912 56.9574C439.215 56.9574 439.49 56.8851 439.738 56.7404C439.985 56.5911 440.183 56.3927 440.333 56.1454C440.482 55.8934 440.557 55.6157 440.557 55.3124C440.557 55.0091 440.491 54.7314 440.361 54.4794C440.235 54.2227 440.027 54.0197 439.738 53.8704C439.453 53.7164 439.075 53.6394 438.604 53.6394H436.084L437.12 48.6834H441.936V50.3914H438.506L438.191 51.9314L438.884 51.9384C439.546 51.9617 440.132 52.1227 440.641 52.4214C441.149 52.7201 441.546 53.1214 441.831 53.6254C442.12 54.1247 442.265 54.6871 442.265 55.3124C442.265 55.7697 442.178 56.2014 442.006 56.6074C441.833 57.0134 441.593 57.3704 441.285 57.6784C440.977 57.9864 440.62 58.2291 440.214 58.4064C439.812 58.5791 439.378 58.6654 438.912 58.6654ZM443.871 58.4834L448.54 50.3914H443.381V48.6834H450.521V50.3914L445.838 58.4834H443.871ZM452.233 58.6654C451.99 58.6654 451.783 58.5814 451.61 58.4134C451.442 58.2407 451.358 58.0307 451.358 57.7834C451.358 57.5454 451.442 57.3401 451.61 57.1674C451.783 56.9947 451.99 56.9084 452.233 56.9084C452.476 56.9084 452.683 56.9947 452.856 57.1674C453.029 57.3401 453.115 57.5454 453.115 57.7834C453.115 58.0307 453.029 58.2407 452.856 58.4134C452.683 58.5814 452.476 58.6654 452.233 58.6654ZM458.191 58.6654C457.622 58.6654 457.104 58.5347 456.637 58.2734C456.17 58.0074 455.767 57.6411 455.426 57.1744C455.09 56.7077 454.831 56.1687 454.649 55.5574C454.467 54.9414 454.376 54.2834 454.376 53.5834C454.376 52.8834 454.467 52.2277 454.649 51.6164C454.831 51.0004 455.09 50.4591 455.426 49.9924C455.767 49.5257 456.17 49.1617 456.637 48.9004C457.104 48.6344 457.622 48.5014 458.191 48.5014C458.76 48.5014 459.278 48.6344 459.745 48.9004C460.212 49.1617 460.611 49.5257 460.942 49.9924C461.278 50.4591 461.537 51.0004 461.719 51.6164C461.906 52.2277 461.999 52.8834 461.999 53.5834C461.999 54.2834 461.906 54.9414 461.719 55.5574C461.537 56.1687 461.278 56.7077 460.942 57.1744C460.611 57.6411 460.212 58.0074 459.745 58.2734C459.278 58.5347 458.76 58.6654 458.191 58.6654ZM458.191 56.9574C458.69 56.9574 459.103 56.7987 459.43 56.4814C459.757 56.1641 459.999 55.7487 460.158 55.2354C460.317 54.7221 460.396 54.1714 460.396 53.5834C460.396 52.9627 460.312 52.3981 460.144 51.8894C459.976 51.3761 459.729 50.9677 459.402 50.6644C459.075 50.3611 458.672 50.2094 458.191 50.2094C457.813 50.2094 457.484 50.3027 457.204 50.4894C456.929 50.6714 456.7 50.9211 456.518 51.2384C456.336 51.5557 456.201 51.9174 456.112 52.3234C456.023 52.7247 455.979 53.1447 455.979 53.5834C455.979 54.1667 456.058 54.7174 456.217 55.2354C456.38 55.7487 456.625 56.1641 456.952 56.4814C457.283 56.7987 457.696 56.9574 458.191 56.9574ZM466.339 58.6654C465.77 58.6654 465.252 58.5347 464.785 58.2734C464.319 58.0074 463.915 57.6411 463.574 57.1744C463.238 56.7077 462.979 56.1687 462.797 55.5574C462.615 54.9414 462.524 54.2834 462.524 53.5834C462.524 52.8834 462.615 52.2277 462.797 51.6164C462.979 51.0004 463.238 50.4591 463.574 49.9924C463.915 49.5257 464.319 49.1617 464.785 48.9004C465.252 48.6344 465.77 48.5014 466.339 48.5014C466.909 48.5014 467.427 48.6344 467.893 48.9004C468.36 49.1617 468.759 49.5257 469.09 49.9924C469.426 50.4591 469.685 51.0004 469.867 51.6164C470.054 52.2277 470.147 52.8834 470.147 53.5834C470.147 54.2834 470.054 54.9414 469.867 55.5574C469.685 56.1687 469.426 56.7077 469.09 57.1744C468.759 57.6411 468.36 58.0074 467.893 58.2734C467.427 58.5347 466.909 58.6654 466.339 58.6654ZM466.339 56.9574C466.839 56.9574 467.252 56.7987 467.578 56.4814C467.905 56.1641 468.148 55.7487 468.306 55.2354C468.465 54.7221 468.544 54.1714 468.544 53.5834C468.544 52.9627 468.46 52.3981 468.292 51.8894C468.124 51.3761 467.877 50.9677 467.55 50.6644C467.224 50.3611 466.82 50.2094 466.339 50.2094C465.961 50.2094 465.632 50.3027 465.352 50.4894C465.077 50.6714 464.848 50.9211 464.666 51.2384C464.484 51.5557 464.349 51.9174 464.26 52.3234C464.172 52.7247 464.127 53.1447 464.127 53.5834C464.127 54.1667 464.207 54.7174 464.365 55.2354C464.529 55.7487 464.774 56.1641 465.1 56.4814C465.432 56.7987 465.845 56.9574 466.339 56.9574Z" fill="#9FA324"/>
<path d="M415.722 76.4834V69.4834H416.632L420.127 74.9634V69.4834H420.967V76.4834H420.062L416.562 71.0034V76.4834H415.722ZM424.319 76.6134C423.859 76.6134 423.439 76.4951 423.059 76.2584C422.682 76.0217 422.38 75.7051 422.154 75.3084C421.93 74.9084 421.819 74.4667 421.819 73.9834C421.819 73.6167 421.884 73.2751 422.014 72.9584C422.144 72.6384 422.322 72.3584 422.549 72.1184C422.779 71.8751 423.045 71.6851 423.349 71.5484C423.652 71.4117 423.975 71.3434 424.319 71.3434C424.695 71.3434 425.04 71.4201 425.354 71.5734C425.67 71.7234 425.94 71.9334 426.164 72.2034C426.39 72.4734 426.559 72.7867 426.669 73.1434C426.782 73.5001 426.824 73.8817 426.794 74.2884H422.714C422.754 74.5717 422.847 74.8251 422.994 75.0484C423.14 75.2684 423.327 75.4434 423.554 75.5734C423.784 75.7034 424.039 75.7701 424.319 75.7734C424.619 75.7734 424.89 75.6967 425.134 75.5434C425.377 75.3867 425.574 75.1734 425.724 74.9034L426.579 75.1034C426.379 75.5467 426.077 75.9101 425.674 76.1934C425.27 76.4734 424.819 76.6134 424.319 76.6134ZM422.689 73.6284H425.949C425.922 73.3484 425.832 73.0934 425.679 72.8634C425.525 72.6301 425.33 72.4434 425.094 72.3034C424.857 72.1634 424.599 72.0934 424.319 72.0934C424.039 72.0934 423.782 72.1617 423.549 72.2984C423.315 72.4351 423.122 72.6201 422.969 72.8534C422.819 73.0834 422.725 73.3417 422.689 73.6284ZM430.168 72.3234H429.033L429.028 76.4834H428.188L428.193 72.3234H427.333V71.4834H428.193L428.188 69.9134H429.028L429.033 71.4834H430.168V72.3234ZM434.991 76.5784C434.721 76.5684 434.458 76.5184 434.201 76.4284C433.948 76.3351 433.725 76.2101 433.531 76.0534C433.341 75.8934 433.203 75.7101 433.116 75.5034L433.836 75.1934C433.886 75.3067 433.976 75.4134 434.106 75.5134C434.236 75.6134 434.386 75.6934 434.556 75.7534C434.726 75.8134 434.898 75.8434 435.071 75.8434C435.255 75.8434 435.426 75.8151 435.586 75.7584C435.746 75.7017 435.876 75.6184 435.976 75.5084C436.08 75.3951 436.131 75.2601 436.131 75.1034C436.131 74.9367 436.075 74.8067 435.961 74.7134C435.851 74.6167 435.711 74.5417 435.541 74.4884C435.375 74.4317 435.205 74.3784 435.031 74.3284C434.688 74.2417 434.381 74.1384 434.111 74.0184C433.841 73.8951 433.628 73.7401 433.471 73.5534C433.318 73.3634 433.241 73.1217 433.241 72.8284C433.241 72.5184 433.326 72.2501 433.496 72.0234C433.67 71.7967 433.896 71.6217 434.176 71.4984C434.456 71.3751 434.756 71.3134 435.076 71.3134C435.48 71.3134 435.848 71.4001 436.181 71.5734C436.515 71.7467 436.763 71.9817 436.926 72.2784L436.251 72.6734C436.195 72.5534 436.108 72.4484 435.991 72.3584C435.875 72.2651 435.741 72.1917 435.591 72.1384C435.441 72.0851 435.288 72.0567 435.131 72.0534C434.938 72.0467 434.756 72.0717 434.586 72.1284C434.42 72.1851 434.285 72.2717 434.181 72.3884C434.081 72.5017 434.031 72.6434 434.031 72.8134C434.031 72.9801 434.085 73.1067 434.191 73.1934C434.301 73.2801 434.443 73.3501 434.616 73.4034C434.793 73.4534 434.985 73.5117 435.191 73.5784C435.495 73.6751 435.778 73.7867 436.041 73.9134C436.305 74.0401 436.516 74.1984 436.676 74.3884C436.84 74.5784 436.92 74.8134 436.916 75.0934C436.916 75.4001 436.825 75.6684 436.641 75.8984C436.458 76.1251 436.22 76.2984 435.926 76.4184C435.636 76.5384 435.325 76.5917 434.991 76.5784ZM441.744 71.4834H442.584V76.4834H441.744L441.709 75.6384C441.552 75.9284 441.336 76.1634 441.059 76.3434C440.786 76.5234 440.459 76.6134 440.079 76.6134C439.712 76.6134 439.369 76.5451 439.049 76.4084C438.729 76.2684 438.446 76.0767 438.199 75.8334C437.956 75.5867 437.766 75.3034 437.629 74.9834C437.492 74.6634 437.424 74.3184 437.424 73.9484C437.424 73.5917 437.491 73.2551 437.624 72.9384C437.757 72.6217 437.942 72.3451 438.179 72.1084C438.419 71.8684 438.696 71.6817 439.009 71.5484C439.322 71.4117 439.659 71.3434 440.019 71.3434C440.412 71.3434 440.757 71.4367 441.054 71.6234C441.351 71.8067 441.591 72.0451 441.774 72.3384L441.744 71.4834ZM440.064 75.7984C440.394 75.7984 440.679 75.7184 440.919 75.5584C441.162 75.3951 441.349 75.1751 441.479 74.8984C441.612 74.6217 441.679 74.3167 441.679 73.9834C441.679 73.6434 441.612 73.3367 441.479 73.0634C441.346 72.7867 441.157 72.5684 440.914 72.4084C440.674 72.2451 440.391 72.1634 440.064 72.1634C439.734 72.1634 439.434 72.2451 439.164 72.4084C438.894 72.5717 438.679 72.7917 438.519 73.0684C438.362 73.3417 438.284 73.6467 438.284 73.9834C438.284 74.3201 438.366 74.6267 438.529 74.9034C438.692 75.1767 438.909 75.3951 439.179 75.5584C439.449 75.7184 439.744 75.7984 440.064 75.7984ZM443.642 76.4834V68.9834H444.482V76.4834H443.642ZM447.834 76.6134C447.374 76.6134 446.954 76.4951 446.574 76.2584C446.198 76.0217 445.896 75.7051 445.669 75.3084C445.446 74.9084 445.334 74.4667 445.334 73.9834C445.334 73.6167 445.399 73.2751 445.529 72.9584C445.659 72.6384 445.838 72.3584 446.064 72.1184C446.294 71.8751 446.561 71.6851 446.864 71.5484C447.168 71.4117 447.491 71.3434 447.834 71.3434C448.211 71.3434 448.556 71.4201 448.869 71.5734C449.186 71.7234 449.456 71.9334 449.679 72.2034C449.906 72.4734 450.074 72.7867 450.184 73.1434C450.298 73.5001 450.339 73.8817 450.309 74.2884H446.229C446.269 74.5717 446.363 74.8251 446.509 75.0484C446.656 75.2684 446.843 75.4434 447.069 75.5734C447.299 75.7034 447.554 75.7701 447.834 75.7734C448.134 75.7734 448.406 75.6967 448.649 75.5434C448.893 75.3867 449.089 75.1734 449.239 74.9034L450.094 75.1034C449.894 75.5467 449.593 75.9101 449.189 76.1934C448.786 76.4734 448.334 76.6134 447.834 76.6134ZM446.204 73.6284H449.464C449.438 73.3484 449.348 73.0934 449.194 72.8634C449.041 72.6301 448.846 72.4434 448.609 72.3034C448.373 72.1634 448.114 72.0934 447.834 72.0934C447.554 72.0934 447.298 72.1617 447.064 72.2984C446.831 72.4351 446.638 72.6201 446.484 72.8534C446.334 73.0834 446.241 73.3417 446.204 73.6284ZM452.696 76.5784C452.426 76.5684 452.163 76.5184 451.906 76.4284C451.653 76.3351 451.43 76.2101 451.236 76.0534C451.046 75.8934 450.908 75.7101 450.821 75.5034L451.541 75.1934C451.591 75.3067 451.681 75.4134 451.811 75.5134C451.941 75.6134 452.091 75.6934 452.261 75.7534C452.431 75.8134 452.603 75.8434 452.776 75.8434C452.96 75.8434 453.131 75.8151 453.291 75.7584C453.451 75.7017 453.581 75.6184 453.681 75.5084C453.785 75.3951 453.836 75.2601 453.836 75.1034C453.836 74.9367 453.78 74.8067 453.666 74.7134C453.556 74.6167 453.416 74.5417 453.246 74.4884C453.08 74.4317 452.91 74.3784 452.736 74.3284C452.393 74.2417 452.086 74.1384 451.816 74.0184C451.546 73.8951 451.333 73.7401 451.176 73.5534C451.023 73.3634 450.946 73.1217 450.946 72.8284C450.946 72.5184 451.031 72.2501 451.201 72.0234C451.375 71.7967 451.601 71.6217 451.881 71.4984C452.161 71.3751 452.461 71.3134 452.781 71.3134C453.185 71.3134 453.553 71.4001 453.886 71.5734C454.22 71.7467 454.468 71.9817 454.631 72.2784L453.956 72.6734C453.9 72.5534 453.813 72.4484 453.696 72.3584C453.58 72.2651 453.446 72.1917 453.296 72.1384C453.146 72.0851 452.993 72.0567 452.836 72.0534C452.643 72.0467 452.461 72.0717 452.291 72.1284C452.125 72.1851 451.99 72.2717 451.886 72.3884C451.786 72.5017 451.736 72.6434 451.736 72.8134C451.736 72.9801 451.79 73.1067 451.896 73.1934C452.006 73.2801 452.148 73.3501 452.321 73.4034C452.498 73.4534 452.69 73.5117 452.896 73.5784C453.2 73.6751 453.483 73.7867 453.746 73.9134C454.01 74.0401 454.221 74.1984 454.381 74.3884C454.545 74.5784 454.625 74.8134 454.621 75.0934C454.621 75.4001 454.53 75.6684 454.346 75.8984C454.163 76.1251 453.925 76.2984 453.631 76.4184C453.341 76.5384 453.03 76.5917 452.696 76.5784Z" fill="#747681"/>
</g>
<defs>
<filter id="filter0_d_5260_91" x="341" y="65.4893" width="20" height="20.0117" filterUnits="userSpaceOnUse" color-interpolation-filters="sRGB">
<feFlood flood-opacity="0" result="BackgroundImageFix"/>
<feColorMatrix in="SourceAlpha" type="matrix" values="0 0 0 0 0 0 0 0 0 0 0 0 0 0 0 0 0 0 127 0" result="hardAlpha"/>
<feOffset dy="2"/>
<feGaussianBlur stdDeviation="2"/>
<feComposite in2="hardAlpha" operator="out"/>
<feColorMatrix type="matrix" values="0 0 0 0 0.101961 0 0 0 0 0.12549 0 0 0 0 0.172549 0 0 0 0.05 0"/>
<feBlend mode="normal" in2="BackgroundImageFix" result="effect1_dropShadow_5260_91"/>
<feBlend mode="normal" in="SourceGraphic" in2="effect1_dropShadow_5260_91" result="shape"/>
</filter>
<filter id="filter1_d_5260_91" x="351" y="2.4834" width="168" height="134" filterUnits="userSpaceOnUse" color-interpolation-filters="sRGB">
<feFlood flood-opacity="0" result="BackgroundImageFix"/>
<feColorMatrix in="SourceAlpha" type="matrix" values="0 0 0 0 0 0 0 0 0 0 0 0 0 0 0 0 0 0 127 0" result="hardAlpha"/>
<feOffset dy="8"/>
<feGaussianBlur stdDeviation="20"/>
<feComposite in2="hardAlpha" operator="out"/>
<feColorMatrix type="matrix" values="0 0 0 0 0.101961 0 0 0 0 0.12549 0 0 0 0 0.172549 0 0 0 0.09 0"/>
<feBlend mode="normal" in2="BackgroundImageFix" result="effect1_dropShadow_5260_91"/>
<feBlend mode="normal" in="SourceGraphic" in2="effect1_dropShadow_5260_91" result="shape"/>
</filter>
<linearGradient id="paint0_linear_5260_91" x1="351.293" y1="19.6323" x2="351.293" y2="193.632" gradientUnits="userSpaceOnUse">
<stop stop-color="#B8E716"/>
<stop offset="1" stop-color="#B8E716" stop-opacity="0"/>
</linearGradient>
</defs>
</svg>
