<svg width="98" height="55" viewBox="0 0 98 55" fill="none" xmlns="http://www.w3.org/2000/svg">
<path opacity="0.9" d="M0 15.4849C0 13.828 1.34315 12.4849 3 12.4849H4.84828C5.65841 12.4849 6.43411 12.8125 6.99893 13.3933L7.61917 14.031C8.79713 15.2423 10.7425 15.2423 11.9205 14.031L12.5407 13.3933C13.1055 12.8125 13.8812 12.4849 14.6914 12.4849H16.6888C18.3457 12.4849 19.6888 13.828 19.6888 15.4849V51.7576C19.6888 53.4145 18.3457 54.7576 16.6888 54.7576H3C1.34315 54.7576 0 53.4145 0 51.7576V15.4849Z" fill="#04091E"/>
<path opacity="0.9" d="M77.6787 21.7276C77.6787 19.943 79.1254 18.4963 80.91 18.4963H82.6778C83.4589 18.4963 84.2136 18.7793 84.8021 19.2928L85.4762 19.8808C86.6933 20.9427 88.5076 20.9427 89.7248 19.8808L90.3988 19.2928C90.9874 18.7793 91.742 18.4963 92.5231 18.4963H94.4424C96.227 18.4963 97.6737 19.943 97.6737 21.7276V51.6907C97.6737 53.4753 96.227 54.922 94.4424 54.922H80.91C79.1254 54.922 77.6787 53.4753 77.6787 51.6907V21.7276Z" fill="#04091E"/>
<path opacity="0.9" d="M28.9198 29C27.1352 29 25.6885 30.4467 25.6885 32.2313V51C25.6885 52.6569 27.0316 54 28.6885 54H42.6835C44.3404 54 45.6835 52.6569 45.6835 51V32.2313C45.6835 30.4467 44.2368 29 42.4522 29H40.9171C39.9113 29 38.9629 29.4684 38.3514 30.267L38.1759 30.4962C36.8826 32.1855 34.3379 32.1855 33.0446 30.4962L32.8691 30.267C32.2576 29.4684 31.3092 29 30.3034 29H28.9198Z" fill="#9FA324"/>
<path opacity="0.9" d="M54.6836 0C53.0267 0 51.6836 1.34314 51.6836 3V51C51.6836 52.6569 53.0267 54 54.6836 54H68.6786C70.3355 54 71.6786 52.6569 71.6786 51V3C71.6786 1.34315 70.3355 0 68.6786 0H66.9773C65.944 0 64.9835 0.531746 64.4349 1.40741L64.1477 1.86588C62.9722 3.74243 60.2385 3.74243 59.063 1.86588L58.7758 1.40741C58.2273 0.531746 57.2667 0 56.2334 0H54.6836Z" fill="#04091E"/>
</svg>
