<svg width="33" height="33" viewBox="0 0 33 33" fill="none" xmlns="http://www.w3.org/2000/svg">
<path d="M11.6904 19.3864C11.6904 21.1191 13.0176 22.5161 14.6665 22.5161H18.0314C19.4658 22.5161 20.6321 21.2938 20.6321 19.7894C20.6321 18.1507 19.9216 17.5731 18.8625 17.197L13.46 15.3165C12.4009 14.9404 11.6904 14.3628 11.6904 12.7241C11.6904 11.2197 12.8567 9.99744 14.2912 9.99744H17.656C19.3049 9.99744 20.6321 11.3944 20.6321 13.1271" stroke="#9FA324" stroke-width="2" stroke-linecap="round" stroke-linejoin="round"/>
<path d="M16.1521 8.19775V24.3162" stroke="#9FA324" stroke-width="2" stroke-linecap="round" stroke-linejoin="round"/>
<path d="M16.1521 29.689C23.556 29.689 29.5579 23.6753 29.5579 16.257C29.5579 8.83867 23.556 2.82495 16.1521 2.82495C8.74832 2.82495 2.74634 8.83867 2.74634 16.257C2.74634 23.6753 8.74832 29.689 16.1521 29.689Z" stroke="#9FA324" stroke-width="2" stroke-linecap="round" stroke-linejoin="round"/>
</svg>
