<svg width="20" height="21" viewBox="0 0 20 21" fill="none" xmlns="http://www.w3.org/2000/svg">
<g opacity="0.54">
<path d="M11.6666 10.3383C11.6666 11.2605 10.9204 12.0082 9.99992 12.0082C9.07944 12.0082 8.33325 11.2605 8.33325 10.3383C8.33325 9.416 9.07944 8.66835 9.99992 8.66835C10.9204 8.66835 11.6666 9.416 11.6666 10.3383Z" stroke="#04091E" stroke-width="1.5"/>
<path d="M11.6666 3.65857C11.6666 4.58085 10.9204 5.3285 9.99992 5.3285C9.07944 5.3285 8.33325 4.58085 8.33325 3.65857C8.33325 2.7363 9.07944 1.98865 9.99992 1.98865C10.9204 1.98865 11.6666 2.7363 11.6666 3.65857Z" stroke="#04091E" stroke-width="1.5"/>
<path d="M11.6666 17.018C11.6666 17.9402 10.9204 18.6879 9.99992 18.6879C9.07944 18.6879 8.33325 17.9402 8.33325 17.018C8.33325 16.0957 9.07944 15.348 9.99992 15.348C10.9204 15.348 11.6666 16.0957 11.6666 17.018Z" stroke="#04091E" stroke-width="1.5"/>
</g>
</svg>
